<svg version="1.1" id="Layer_1" xmlns="http://www.w3.org/2000/svg" xmlns:xlink="http://www.w3.org/1999/xlink" x="0px" y="0px"
	 width="100%" viewBox="0 0 57 51" enable-background="new 0 0 57 51" xml:space="preserve">
<path fill="#F9FCFB" opacity="1.000000" stroke="none" 
	d="
M41.004738,52.000000 
	C27.337086,52.000000 14.170556,52.000000 1.003020,52.000000 
	C1.002013,35.001518 1.002013,18.003036 1.001006,1.003416 
	C19.998285,1.002277 38.996571,1.002277 57.996140,1.001139 
	C57.997429,17.998108 57.997429,34.996216 57.998714,51.997162 
	C52.501953,52.000000 47.003902,52.000000 41.004738,52.000000 
M41.403027,23.649321 
	C41.403027,23.649321 41.172379,23.952034 41.450207,23.329947 
	C41.479088,22.882288 41.507965,22.434631 42.035076,21.621126 
	C40.560650,19.976507 45.700478,16.200800 40.146305,15.234572 
	C40.211231,14.825321 40.276157,14.416070 40.849174,13.633550 
	C39.529572,11.794132 38.209969,9.954715 36.701218,7.663969 
	C36.576389,7.346413 36.364380,7.105613 36.127254,6.161731 
	C35.265408,3.082878 33.821426,3.376216 31.240484,5.438094 
	C30.419991,5.353403 29.599497,5.268711 28.856873,4.681090 
	C28.636059,4.845176 28.415243,5.009263 27.442036,5.311192 
	C26.025940,5.872522 24.609844,6.433852 23.058725,7.740524 
	C23.032442,8.491238 23.006159,9.241952 22.642693,9.792084 
	C22.642693,9.792084 22.253429,9.841086 22.042459,9.307964 
	C21.664499,9.521579 21.286539,9.735192 20.470579,10.037670 
	C20.470579,10.037670 20.040417,10.158919 19.477339,10.045653 
	C19.285948,10.347761 19.094557,10.649868 18.404352,11.337833 
	C17.798985,12.443200 17.193617,13.548567 16.103336,14.983655 
	C15.746961,16.219934 15.390586,17.456213 15.048490,19.397350 
	C15.363269,20.519281 15.678048,21.641212 15.365522,23.102362 
	C13.450040,24.911083 11.534557,26.719803 9.608728,28.613749 
	C9.608728,28.613749 9.555822,28.681360 9.000526,28.814054 
	C8.488616,29.872961 7.976707,30.931870 7.516735,32.614120 
	C6.688456,34.088753 5.860176,35.563389 4.347356,37.154007 
	C3.157537,40.149754 6.953370,48.730240 9.902293,49.674301 
	C9.929648,49.683060 10.050759,49.398964 10.683610,49.245476 
	C11.045897,49.169476 11.408186,49.093475 12.265496,49.746887 
	C15.915057,49.593040 19.564619,49.439190 23.890165,49.222958 
	C24.633539,48.181068 25.376915,47.139179 26.532495,45.994961 
	C26.532495,45.994961 26.937439,45.866875 27.609394,46.223724 
	C29.647951,47.174839 31.624340,48.740273 33.737507,48.954121 
	C38.729828,49.459332 43.787170,49.325489 48.818985,49.383244 
	C48.865685,49.383781 48.922867,48.471096 49.303596,47.378403 
	C50.545864,45.750706 51.708855,44.054031 53.050087,42.512436 
	C54.801102,40.499832 54.300392,39.091251 51.969341,37.219666 
	C52.046112,36.479412 52.122883,35.739159 52.831001,34.777611 
	C52.283772,33.483379 51.736542,32.189144 50.968094,30.240376 
	C48.655907,28.877235 46.343723,27.514095 43.417179,25.978287 
	C42.610161,26.203997 41.803146,26.429707 41.028919,26.522732 
	C41.028919,26.522732 41.061893,26.390093 41.161690,25.896652 
	C41.194138,25.732006 41.226582,25.567362 41.758305,25.149626 
	C41.753635,24.705667 41.748966,24.261711 41.403027,23.649321 
z"/>
<path fill="#F6FBF9" opacity="1.000000" stroke="none" 
	d="
M41.061893,26.390093 
	C41.061893,26.390093 41.028919,26.522732 40.764545,26.794926 
	C40.046112,27.720757 39.592052,28.374395 39.073544,29.397028 
	C39.276119,30.871584 39.543144,31.977146 39.861359,33.321732 
	C39.912552,33.560749 40.105122,34.010109 40.071922,34.288910 
	C40.337467,34.774391 40.636204,34.981064 40.947685,35.478924 
	C41.280804,36.189632 41.601181,36.609154 41.948475,37.247940 
	C41.975391,37.467197 41.957672,37.908649 41.602840,38.061440 
	C39.082447,38.719391 36.916885,39.224552 34.353058,39.766186 
	C31.565325,40.371384 29.175858,40.940113 26.439690,41.339340 
	C23.413689,40.429844 20.734388,39.689854 17.923037,38.566868 
	C18.467718,34.861828 18.915030,31.471270 19.881220,28.235655 
	C21.003811,24.476282 19.337332,23.129622 15.992827,22.763144 
	C15.678048,21.641212 15.363269,20.519281 15.378510,19.091297 
	C16.823400,19.490280 17.938272,20.195314 19.376127,21.087351 
	C23.744576,24.549229 25.664467,23.577847 28.435238,17.008221 
	C31.855076,18.708172 34.918880,20.434294 37.938705,22.384476 
	C37.894726,22.608538 38.053066,23.036903 37.866074,23.311642 
	C37.706848,23.806190 37.734612,24.026001 37.783386,24.621601 
	C38.890228,25.461624 39.976059,25.925859 41.061893,26.390093 
z"/>
<path fill="#079A4B" opacity="1.000000" stroke="none" 
	d="
M34.751328,39.729713 
	C36.916885,39.224552 39.082447,38.719391 41.760212,38.291969 
	C42.683029,38.337418 43.093639,38.305119 43.504253,38.272823 
	C42.976688,37.858109 42.449123,37.443394 41.921558,37.028679 
	C41.601181,36.609154 41.280804,36.189632 40.883789,35.236588 
	C40.573139,34.472084 40.339130,34.241096 40.105122,34.010109 
	C40.105122,34.010109 39.912552,33.560749 40.161148,33.100368 
	C40.606251,31.425264 40.802757,30.210541 41.232170,29.122746 
	C42.299332,29.162611 43.133587,29.075548 44.275742,29.122335 
	C46.061512,30.172384 47.539387,31.088581 49.076324,32.326214 
	C49.416805,33.451115 49.698215,34.254581 49.991104,35.414425 
	C50.707542,36.499184 51.412506,37.227566 52.117470,37.955944 
	C54.300392,39.091251 54.801102,40.499832 53.050087,42.512436 
	C51.708855,44.054031 50.545864,45.750706 48.681442,47.717651 
	C45.128475,48.062412 42.156071,48.358902 39.284733,47.948410 
	C37.887718,47.748688 36.139366,46.493359 35.522247,45.237980 
	C34.745312,43.657490 34.962864,41.588139 34.751328,39.729713 
z"/>
<path fill="#0A9B4D" opacity="1.000000" stroke="none" 
	d="
M28.079206,17.034388 
	C25.664467,23.577847 23.744576,24.549229 19.350449,20.678028 
	C19.093512,18.717358 19.185240,17.353012 19.585930,15.924452 
	C22.228567,14.293971 22.080242,12.671879 20.009251,10.794378 
	C20.014435,10.582335 20.040417,10.158919 20.040417,10.158919 
	C20.040417,10.158919 20.470579,10.037670 21.028931,10.004930 
	C21.809332,9.928489 22.031382,9.884788 22.253429,9.841086 
	C22.253429,9.841086 22.642693,9.792084 22.934242,9.901159 
	C23.225794,10.010236 23.472124,10.002829 23.640560,10.263015 
	C24.196352,10.651182 24.583708,10.779163 25.206961,11.194445 
	C28.269495,12.351261 30.808945,12.458218 32.245773,8.992687 
	C32.752987,8.858364 33.023464,8.740204 33.293941,8.622043 
	C33.207565,8.500563 33.051567,8.269070 33.044785,8.273363 
	C32.686531,8.500068 32.340897,8.746705 31.611156,9.037638 
	C29.194073,9.387431 27.159773,9.690844 25.087303,9.737293 
	C25.070908,9.308516 25.092682,9.136702 25.328524,8.768728 
	C24.759644,8.046774 23.976696,7.520978 23.193748,6.995183 
	C24.609844,6.433852 26.025940,5.872522 27.962673,5.329284 
	C28.483313,5.347377 28.779003,5.184019 28.779003,5.184019 
	C29.599497,5.268711 30.419991,5.353403 31.887421,5.649289 
	C33.711304,6.220845 34.888248,6.581206 36.065193,6.941567 
	C36.364380,7.105613 36.576389,7.346413 36.739716,8.213573 
	C36.908875,9.402476 37.039543,10.041773 36.991470,10.978725 
	C34.053261,12.398245 31.293797,13.520109 28.534332,14.641973 
	C28.063148,14.252391 27.591965,13.862809 27.120781,13.473227 
	C27.440256,14.660280 27.759731,15.847334 28.079206,17.034388 
z"/>
<path fill="#0F9D51" opacity="1.000000" stroke="none" 
	d="
M5.031897,37.038021 
	C5.860176,35.563389 6.688456,34.088753 7.870828,32.224949 
	C8.668554,30.784306 9.112188,29.732832 9.555822,28.681360 
	C9.555822,28.681360 9.608728,28.613749 10.031824,28.752651 
	C12.903799,29.468281 15.352679,30.045008 17.949453,30.656567 
	C17.236603,33.719093 16.600058,36.453808 15.972618,39.512970 
	C15.375361,40.879139 14.769001,41.920864 13.803734,42.950439 
	C12.274923,44.585918 11.105020,46.233540 9.646130,47.713501 
	C7.915395,44.043236 6.473646,40.540627 5.031897,37.038021 
z"/>
<path fill="#0A9B4E" opacity="1.000000" stroke="none" 
	d="
M14.162640,42.962585 
	C14.769001,41.920864 15.375361,40.879139 16.324131,39.495338 
	C17.129391,39.085461 17.592239,39.017658 18.055090,38.949860 
	C20.734388,39.689854 23.413689,40.429844 26.469349,41.700645 
	C26.876286,43.443260 26.906862,44.655067 26.937439,45.866875 
	C26.937439,45.866875 26.532495,45.994961 25.975479,46.014160 
	C24.611994,46.382290 23.805525,46.731220 22.584845,47.043488 
	C20.079094,47.283550 17.987555,47.560280 15.576551,47.703888 
	C14.892271,46.034710 14.527455,44.498650 14.162640,42.962585 
z"/>
<path fill="#5FBB8A" opacity="1.000000" stroke="none" 
	d="
M27.273415,46.045300 
	C26.906862,44.655067 26.876286,43.443260 26.816051,41.870148 
	C29.175858,40.940113 31.565325,40.371384 34.353058,39.766186 
	C34.962864,41.588139 34.745312,43.657490 35.522247,45.237980 
	C36.139366,46.493359 37.887718,47.748688 39.284733,47.948410 
	C42.156071,48.358902 45.128475,48.062412 48.517220,48.020836 
	C48.922867,48.471096 48.865685,49.383781 48.818985,49.383244 
	C43.787170,49.325489 38.729828,49.459332 33.737507,48.954121 
	C31.624340,48.740273 29.647951,47.174839 27.273415,46.045300 
z"/>
<path fill="#0E9C50" opacity="1.000000" stroke="none" 
	d="
M28.435238,17.008221 
	C27.759731,15.847334 27.440256,14.660280 27.120781,13.473227 
	C27.591965,13.862809 28.063148,14.252391 28.534332,14.641973 
	C31.293797,13.520109 34.053261,12.398245 37.247482,11.199747 
	C38.568520,12.084350 39.454803,13.045584 40.341084,14.006819 
	C40.276157,14.416070 40.211231,14.825321 40.049461,15.812557 
	C39.897415,16.574659 39.842209,16.758776 39.503689,17.007214 
	C39.129879,18.028603 39.039383,18.985670 38.899036,20.200642 
	C38.838722,20.633352 38.828255,20.808157 38.656273,21.067593 
	C38.296246,21.299042 38.125854,21.473368 37.930534,21.796404 
	C37.877476,21.917608 37.982689,22.160414 37.982689,22.160416 
	C34.918880,20.434294 31.855076,18.708172 28.435238,17.008221 
z"/>
<path fill="#6AC091" opacity="1.000000" stroke="none" 
	d="
M17.923037,38.566868 
	C17.592239,39.017658 17.129391,39.085461 16.315027,39.170891 
	C16.600058,36.453808 17.236603,33.719093 17.949453,30.656567 
	C15.352679,30.045008 12.903799,29.468281 10.036997,28.710037 
	C11.534557,26.719803 13.450040,24.911083 15.679174,22.932753 
	C19.337332,23.129622 21.003811,24.476282 19.881220,28.235655 
	C18.915030,31.471270 18.467718,34.861828 17.923037,38.566868 
z"/>
<path fill="#6AC091" opacity="1.000000" stroke="none" 
	d="
M4.689627,37.096016 
	C6.473646,40.540627 7.915395,44.043236 9.697161,48.056042 
	C10.067485,48.794693 10.097791,49.023140 10.128098,49.251591 
	C10.050759,49.398964 9.929648,49.683060 9.902293,49.674301 
	C6.953370,48.730240 3.157537,40.149754 4.689627,37.096016 
z"/>
<path fill="#0C9B4E" opacity="1.000000" stroke="none" 
	d="
M49.017258,32.004780 
	C47.539387,31.088581 46.061512,30.172384 44.284515,28.767834 
	C44.000767,27.569975 44.016151,26.860466 44.031536,26.150957 
	C46.343723,27.514095 48.655907,28.877235 50.854420,30.783176 
	C50.166248,31.552246 49.591755,31.778513 49.017258,32.004780 
z"/>
<path fill="#7EC8A0" opacity="1.000000" stroke="none" 
	d="
M10.405853,49.248535 
	C10.097791,49.023140 10.067485,48.794693 9.986147,48.223701 
	C11.105020,46.233540 12.274923,44.585918 13.803734,42.950439 
	C14.527455,44.498650 14.892271,46.034710 15.643602,47.915085 
	C16.030117,48.259399 16.096558,48.695030 15.675915,48.806328 
	C14.093672,48.950909 12.932074,48.984192 11.770474,49.017479 
	C11.408186,49.093475 11.045897,49.169476 10.405853,49.248535 
z"/>
<path fill="#1AA159" opacity="1.000000" stroke="none" 
	d="
M20.004066,11.006422 
	C22.080242,12.671879 22.228567,14.293971 19.217014,15.821735 
	C17.888845,15.406802 17.238546,15.030368 16.588249,14.653934 
	C17.193617,13.548567 17.798985,12.443200 18.929081,11.166101 
	C19.637228,10.998385 19.820646,11.002404 20.004066,11.006422 
z"/>
<path fill="#7EC8A0" opacity="1.000000" stroke="none" 
	d="
M38.817783,20.982964 
	C38.828255,20.808157 38.838722,20.633352 39.212803,20.052860 
	C39.646610,18.745745 39.716805,17.844320 39.786999,16.942894 
	C39.842209,16.758776 39.897415,16.574659 40.065765,16.125347 
	C45.700478,16.200800 40.560650,19.976507 41.447464,21.904835 
	C40.229824,22.484238 39.599804,22.779934 38.928970,22.773884 
	C38.887318,22.269142 38.886471,22.066147 38.938057,21.637756 
	C38.990490,21.412361 38.817783,20.982964 38.817783,20.982964 
z"/>
<path fill="#29A663" opacity="1.000000" stroke="none" 
	d="
M12.017985,49.382179 
	C12.932074,48.984192 14.093672,48.950909 16.056734,48.837601 
	C18.908054,48.638306 20.957914,48.519028 23.008274,48.633057 
	C23.008778,48.866364 23.214180,49.285343 23.214180,49.285343 
	C19.564619,49.439190 15.915057,49.593040 12.017985,49.382179 
z"/>
<path fill="#57B885" opacity="1.000000" stroke="none" 
	d="
M16.345793,14.818794 
	C17.238546,15.030368 17.888845,15.406802 18.908056,15.885952 
	C19.185240,17.353012 19.093512,18.717358 19.027462,20.491026 
	C17.938272,20.195314 16.823400,19.490280 15.371370,18.738869 
	C15.390586,17.456213 15.746961,16.219934 16.345793,14.818794 
z"/>
<path fill="#31AA69" opacity="1.000000" stroke="none" 
	d="
M43.724358,26.064621 
	C44.016151,26.860466 44.000767,27.569975 43.976616,28.633984 
	C43.133587,29.075548 42.299332,29.162611 40.921867,29.118511 
	C39.965107,29.000910 39.551548,29.014471 39.137993,29.028034 
	C39.592052,28.374395 40.046112,27.720757 40.748150,26.861267 
	C41.803146,26.429707 42.610161,26.203997 43.724358,26.064621 
z"/>
<path fill="#75C499" opacity="1.000000" stroke="none" 
	d="
M40.595131,13.820185 
	C39.454803,13.045584 38.568520,12.084350 37.426224,10.902092 
	C37.039543,10.041773 36.908875,9.402476 36.834290,8.439238 
	C38.209969,9.954715 39.529572,11.794132 40.595131,13.820185 
z"/>
<path fill="#7EC8A0" opacity="1.000000" stroke="none" 
	d="
M49.076324,32.326214 
	C49.591755,31.778513 50.166248,31.552246 50.965027,31.110447 
	C51.736542,32.189144 52.283772,33.483379 52.147232,34.949570 
	C50.968849,35.100368 50.474236,35.079208 49.979626,35.058048 
	C49.698215,34.254581 49.416805,33.451115 49.076324,32.326214 
z"/>
<path fill="#75C499" opacity="1.000000" stroke="none" 
	d="
M36.096222,6.551649 
	C34.888248,6.581206 33.711304,6.220845 32.301270,5.660751 
	C33.821426,3.376216 35.265408,3.082878 36.096222,6.551649 
z"/>
<path fill="#57B885" opacity="1.000000" stroke="none" 
	d="
M23.552174,49.254150 
	C23.214180,49.285343 23.008778,48.866364 22.997244,48.301300 
	C22.990160,47.517540 22.994608,47.298843 22.999056,47.080151 
	C23.805525,46.731220 24.611994,46.382290 25.769377,46.065323 
	C25.376915,47.139179 24.633539,48.181068 23.552174,49.254150 
z"/>
<path fill="#0E9C50" opacity="1.000000" stroke="none" 
	d="
M23.126236,7.367853 
	C23.976696,7.520978 24.759644,8.046774 25.008749,8.858465 
	C24.140646,9.430516 23.806385,9.716673 23.472124,10.002829 
	C23.472124,10.002829 23.225794,10.010236 23.102835,10.001451 
	C23.006159,9.241952 23.032442,8.491238 23.126236,7.367853 
z"/>
<path fill="#6AC091" opacity="1.000000" stroke="none" 
	d="
M9.278175,28.747707 
	C9.112188,29.732832 8.668554,30.784306 7.844858,31.913277 
	C7.976707,30.931870 8.488616,29.872961 9.278175,28.747707 
z"/>
<path fill="#5FBB8A" opacity="1.000000" stroke="none" 
	d="
M41.111794,26.143372 
	C39.976059,25.925859 38.890228,25.461624 38.202034,24.520424 
	C39.457241,24.012983 40.314808,23.982510 41.172379,23.952034 
	C41.172379,23.952034 41.403027,23.649321 41.378288,24.108656 
	C41.322041,24.846233 41.290531,25.124477 41.259022,25.402719 
	C41.226582,25.567362 41.194138,25.732006 41.111794,26.143372 
z"/>
<path fill="#0C9B4E" opacity="1.000000" stroke="none" 
	d="
M49.991104,35.414425 
	C50.474236,35.079208 50.968849,35.100368 51.831558,35.060219 
	C52.122883,35.739159 52.046112,36.479412 52.043404,37.587807 
	C51.412506,37.227566 50.707542,36.499184 49.991104,35.414425 
z"/>
<path fill="#0C9B4E" opacity="1.000000" stroke="none" 
	d="
M41.311295,23.640991 
	C40.314808,23.982510 39.457241,24.012983 38.181023,24.144634 
	C37.734612,24.026001 37.706848,23.806190 38.092651,23.381622 
	C38.506222,23.176863 38.969780,23.075630 38.969780,23.075630 
	C39.599804,22.779934 40.229824,22.484238 41.198345,22.087757 
	C41.507965,22.434631 41.479088,22.882288 41.311295,23.640991 
z"/>
<path fill="#39AC6F" opacity="1.000000" stroke="none" 
	d="
M22.147945,9.574526 
	C22.031382,9.884788 21.809332,9.928489 21.247932,9.960499 
	C21.286539,9.735192 21.664499,9.521579 22.147945,9.574526 
z"/>
<path fill="#7EC8A0" opacity="1.000000" stroke="none" 
	d="
M41.508663,25.276173 
	C41.290531,25.124477 41.322041,24.846233 41.548927,24.192871 
	C41.748966,24.261711 41.753635,24.705667 41.508663,25.276173 
z"/>
<path fill="#39AC6F" opacity="1.000000" stroke="none" 
	d="
M20.009251,10.794378 
	C19.820646,11.002404 19.637228,10.998385 19.178486,10.973171 
	C19.094557,10.649868 19.285948,10.347761 19.758877,10.102286 
	C20.040417,10.158919 20.014435,10.582335 20.009251,10.794378 
z"/>
<path fill="#75C499" opacity="1.000000" stroke="none" 
	d="
M28.817938,4.932554 
	C28.779003,5.184019 28.483313,5.347377 28.338871,5.260363 
	C28.415243,5.009263 28.636059,4.845176 28.817938,4.932554 
z"/>
<path fill="#0C9B4E" opacity="1.000000" stroke="none" 
	d="
M39.073544,29.397026 
	C39.551548,29.014471 39.965107,29.000910 40.688965,28.991581 
	C40.802757,30.210541 40.606251,31.425264 40.109955,32.861351 
	C39.543144,31.977146 39.276119,30.871584 39.073544,29.397026 
z"/>
<path fill="#0C9B4E" opacity="1.000000" stroke="none" 
	d="
M41.948475,37.247940 
	C42.449123,37.443394 42.976688,37.858109 43.504253,38.272823 
	C43.093639,38.305119 42.683029,38.337418 42.115044,38.139183 
	C41.957672,37.908649 41.975391,37.467197 41.948475,37.247940 
z"/>
<path fill="#0C9B4E" opacity="1.000000" stroke="none" 
	d="
M40.071922,34.288910 
	C40.339130,34.241096 40.573139,34.472084 40.871048,34.945404 
	C40.636204,34.981064 40.337467,34.774391 40.071922,34.288910 
z"/>
<path fill="#5FBB8A" opacity="1.000000" stroke="none" 
	d="
M38.928970,22.773884 
	C38.969780,23.075630 38.506222,23.176863 38.279644,23.106884 
	C38.053066,23.036903 37.894726,22.608538 37.938705,22.384476 
	C37.982689,22.160414 37.877476,21.917608 38.152924,21.859224 
	C38.428371,21.800840 38.885624,21.863153 38.885624,21.863153 
	C38.886471,22.066147 38.887318,22.269142 38.928970,22.773884 
z"/>
<path fill="#0E9C50" opacity="1.000000" stroke="none" 
	d="
M25.125473,9.994257 
	C27.159773,9.690844 29.194073,9.387431 31.614330,9.042156 
	C32.000286,9.000294 32.009041,9.008849 32.009041,9.008849 
	C30.808945,12.458218 28.269495,12.351261 25.235073,10.964669 
	C25.027288,10.447593 25.125473,9.994257 25.125473,9.994257 
z"/>
<path fill="#6AC091" opacity="1.000000" stroke="none" 
	d="
M25.087303,9.737293 
	C25.125473,9.994257 25.027288,10.447593 24.999176,10.677368 
	C24.583708,10.779163 24.196352,10.651182 23.640560,10.263015 
	C23.806385,9.716673 24.140646,9.430516 24.794682,9.054623 
	C25.092682,9.136702 25.070908,9.308516 25.087303,9.737293 
z"/>
<path fill="#0E9C50" opacity="1.000000" stroke="none" 
	d="
M31.997112,8.995775 
	C32.340897,8.746705 32.686531,8.500068 33.044785,8.273363 
	C33.051567,8.269070 33.207565,8.500563 33.293941,8.622043 
	C33.023464,8.740204 32.752987,8.858364 32.245773,8.992687 
	C32.009041,9.008849 32.000286,9.000294 31.997112,8.995775 
z"/>
<path fill="#A1D7B9" opacity="1.000000" stroke="none" 
	d="
M22.584845,47.043488 
	C22.994608,47.298843 22.990160,47.517540 22.996742,48.067993 
	C20.957914,48.519028 18.908054,48.638306 16.477377,48.726307 
	C16.096558,48.695030 16.030117,48.259399 15.963066,48.048203 
	C17.987555,47.560280 20.079094,47.283550 22.584845,47.043488 
z"/>
<path fill="#29A663" opacity="1.000000" stroke="none" 
	d="
M39.503689,17.007214 
	C39.716805,17.844320 39.646610,18.745745 39.262650,19.794954 
	C39.039383,18.985670 39.129879,18.028603 39.503689,17.007214 
z"/>
<path fill="#29A663" opacity="1.000000" stroke="none" 
	d="
M38.938057,21.637756 
	C38.885624,21.863153 38.428371,21.800840 38.205986,21.738020 
	C38.125854,21.473368 38.296246,21.299042 38.656273,21.067593 
	C38.817783,20.982964 38.990490,21.412361 38.938057,21.637756 
z"/>
</svg>