<svg version="1.1" id="Layer_1" xmlns="http://www.w3.org/2000/svg" xmlns:xlink="http://www.w3.org/1999/xlink" x="0px" y="0px"
	 width="100%" viewBox="0 0 256 234" enable-background="new 0 0 256 234" xml:space="preserve">
<path fill="#FEFEFE" opacity="1.000000" stroke="none" 
	d="
M1.000000,89.000000 
	C1.000000,59.333340 1.000000,30.166677 1.000000,1.000012 
	C86.333313,1.000008 171.666626,1.000008 256.999939,1.000004 
	C256.999969,78.999962 256.999969,156.999924 257.000000,234.999908 
	C171.666718,234.999939 86.333435,234.999939 1.000075,234.999969 
	C1.000000,186.500000 1.000000,138.000000 1.000000,89.000000 
M163.968552,33.171356 
	C163.688614,32.837784 163.408691,32.504211 162.165314,31.652742 
	C161.803711,31.606058 161.442093,31.559376 161.065598,31.480370 
	C161.065598,31.480370 161.050201,31.448296 161.162323,30.711426 
	C160.793900,30.460295 160.425491,30.209164 160.111496,30.006170 
	C160.111496,30.006170 160.163696,29.955608 160.276520,29.182034 
	C159.363159,26.710106 158.827682,23.988131 157.411926,21.848656 
	C156.358002,20.255980 154.210007,18.474817 152.471176,18.390638 
	C137.040451,17.643621 121.587448,17.371552 106.151001,16.722027 
	C96.197479,16.303207 91.107384,20.521936 89.908882,30.291712 
	C89.644638,32.445671 88.330902,34.564579 87.152992,36.486698 
	C85.947327,38.454113 84.040726,40.005749 82.915268,42.006237 
	C76.973694,52.567394 71.099953,63.168797 65.364868,73.843369 
	C61.017517,81.934998 61.842010,87.007904 69.512062,92.339287 
	C76.712784,97.344437 84.404831,101.771019 92.278854,105.642326 
	C99.814964,109.347496 109.047035,106.961090 113.242599,100.422852 
	C117.343254,94.032539 120.521805,87.056290 124.287750,80.441216 
	C125.190086,78.856209 126.754913,76.681892 128.126999,76.597450 
	C129.553101,76.509689 131.300064,78.456261 132.557480,79.832336 
	C133.529099,80.895683 133.885834,82.496483 134.645859,83.781509 
	C139.811111,92.514824 146.745834,99.342003 156.668686,102.172806 
	C160.136337,103.162056 161.728333,104.886177 163.162979,107.929787 
	C165.175934,112.200310 168.057510,116.315681 173.438004,116.243607 
	C180.479752,116.149277 184.863800,111.069160 188.644547,106.091736 
	C191.588058,102.216515 189.000458,98.326103 186.732986,94.637505 
	C185.571030,92.747314 184.256744,89.565430 185.062088,88.076790 
	C190.160629,78.652428 187.478134,70.823380 181.115585,63.172684 
	C181.115585,63.172684 180.973511,62.954052 180.790848,62.312576 
	C180.791275,61.870689 180.791687,61.428806 180.943619,60.369362 
	C180.667160,59.829586 180.390701,59.289810 180.017441,58.051865 
	C178.361877,56.345329 176.706299,54.638798 175.005081,52.995358 
	C175.005081,52.995358 175.074982,52.961040 175.876724,52.509686 
	C174.604904,50.831104 173.333069,49.152523 172.214844,47.051243 
	C171.982056,46.691326 171.749268,46.331409 171.144073,45.209496 
	C169.773224,43.563248 168.402359,41.917000 166.651443,40.495819 
	C166.651443,40.495819 166.526413,40.919453 166.504196,40.985966 
	C166.504196,40.985966 166.571564,40.966450 167.125412,40.314667 
	C166.285263,38.446762 165.445099,36.578861 164.381958,34.078724 
	C164.268555,33.886158 164.155151,33.693592 163.968552,33.171356 
M36.776817,129.891724 
	C34.557396,132.456055 31.750391,134.714798 30.228109,137.641708 
	C25.556126,146.624542 21.376608,155.863525 16.536707,165.474091 
	C10.142983,173.331436 10.475668,173.154236 14.965398,181.583771 
	C21.685392,194.200638 27.856890,207.108994 34.317268,219.865204 
	C36.430153,224.037170 44.381744,228.746857 47.939941,226.811996 
	C54.264137,223.373032 60.421272,224.996643 66.829681,225.190796 
	C78.635658,225.548508 90.464088,225.266800 102.281433,225.115967 
	C111.993225,224.992050 115.976715,221.822845 117.018417,212.012772 
	C117.893448,203.772202 118.179802,195.371063 117.670372,187.106125 
	C117.020775,176.567215 109.271309,169.940445 98.634911,169.986465 
	C92.014885,170.015106 85.392319,170.443741 78.779846,170.841614 
	C75.079582,171.064255 72.995682,168.696671 74.350418,165.224777 
	C75.002846,163.552765 76.285782,162.133362 77.229874,160.567429 
	C82.369774,152.041962 85.285072,142.899414 83.212914,132.951950 
	C82.369026,128.900833 82.764862,126.005173 85.188263,122.515472 
	C90.909637,114.276695 88.473396,107.538467 79.177078,104.044617 
	C78.398399,103.751961 77.609032,103.486870 76.820091,103.222549 
	C68.628586,100.478241 66.370354,101.543762 61.856300,108.973724 
	C60.581264,111.072380 58.063320,113.503639 55.870548,113.770538 
	C45.860149,114.989021 41.169472,118.336617 36.776817,129.891724 
M195.042435,222.255356 
	C201.035065,222.825455 207.020279,223.559402 213.026413,223.830551 
	C214.261063,223.886292 215.968033,222.485031 216.789902,221.294571 
	C225.671921,208.429214 234.378830,195.443130 243.220490,182.549637 
	C248.790085,174.427704 247.977814,168.196136 240.528412,161.929932 
	C239.056335,160.691696 237.778625,159.035660 236.886230,157.324585 
	C229.755081,143.651245 222.885101,129.839828 215.619232,116.239471 
	C212.396255,110.206657 207.803955,108.092697 201.385666,110.720032 
	C192.210037,114.476089 183.206635,118.905212 174.733810,124.043137 
	C168.354828,127.911369 165.464645,136.466202 168.004669,142.441040 
	C171.044876,149.592438 175.191391,156.268509 178.725662,163.218124 
	C179.700119,165.134247 180.200043,167.291672 180.917709,169.338379 
	C178.665283,169.967758 176.376221,171.244003 174.166504,171.118912 
	C162.063293,170.433731 150.973053,172.408218 141.944702,181.389542 
	C141.076752,182.252991 139.011551,182.223831 137.539337,182.113312 
	C132.110199,181.705780 126.416313,181.259811 123.007774,186.371033 
	C119.070625,192.274948 121.334534,198.806519 123.455917,204.641403 
	C125.089561,209.134781 129.826874,209.411530 134.191513,209.036560 
	C137.799530,208.726608 140.089783,210.116699 142.338226,213.250000 
	C144.518143,216.287781 147.945007,219.600571 151.359146,220.347488 
	C159.285233,222.081512 167.517624,222.729156 175.657196,223.071198 
	C181.816635,223.330032 188.024521,222.435852 195.042435,222.255356 
z"/>
<path fill="#149C54" opacity="1.000000" stroke="none" 
	d="
M194.626648,222.155075 
	C188.024521,222.435852 181.816635,223.330032 175.657196,223.071198 
	C167.517624,222.729156 159.285233,222.081512 151.359146,220.347488 
	C147.945007,219.600571 144.518143,216.287781 142.338226,213.250000 
	C140.089783,210.116699 137.799530,208.726608 134.191513,209.036560 
	C129.826874,209.411530 125.089561,209.134781 123.455917,204.641403 
	C121.334534,198.806519 119.070625,192.274948 123.007774,186.371033 
	C126.416313,181.259811 132.110199,181.705780 137.539337,182.113312 
	C139.011551,182.223831 141.076752,182.252991 141.944702,181.389542 
	C150.973053,172.408218 162.063293,170.433731 174.166504,171.118912 
	C176.376221,171.244003 178.665283,169.967758 180.917709,169.338379 
	C180.200043,167.291672 179.700119,165.134247 178.725662,163.218124 
	C175.191391,156.268509 171.044876,149.592438 168.004669,142.441040 
	C165.464645,136.466202 168.354828,127.911369 174.733810,124.043137 
	C183.206635,118.905212 192.210037,114.476089 201.385666,110.720032 
	C207.803955,108.092697 212.396255,110.206657 215.619232,116.239471 
	C222.885101,129.839828 229.755081,143.651245 236.886230,157.324585 
	C237.778625,159.035660 239.056335,160.691696 240.528412,161.929932 
	C247.977814,168.196136 248.790085,174.427704 243.220490,182.549637 
	C234.378830,195.443130 225.671921,208.429214 216.789902,221.294571 
	C215.968033,222.485031 214.261063,223.886292 213.026413,223.830551 
	C207.020279,223.559402 201.035065,222.825455 194.626648,222.155075 
M214.917145,173.561813 
	C214.851807,173.802307 214.817276,174.047150 214.239243,174.501236 
	C213.834045,174.519958 213.428833,174.538681 212.658035,174.222565 
	C212.094833,174.425201 211.531616,174.627853 210.139450,174.982880 
	C203.349182,174.970215 196.558777,174.930008 189.768692,174.958984 
	C187.194366,174.969955 184.621307,175.161240 182.046646,175.234207 
	C173.344193,175.480789 164.568695,175.142044 155.975708,176.238586 
	C152.713593,176.654877 149.591248,180.072083 146.927612,182.659378 
	C144.857147,184.670486 143.747787,186.142883 140.078384,185.350662 
	C135.719604,184.409622 129.147278,182.966080 127.172211,188.356781 
	C125.508461,192.897842 125.757454,199.243820 127.767082,203.583374 
	C128.850632,205.923172 135.406998,206.428223 139.492279,206.422440 
	C142.045807,206.418823 143.099533,206.878601 144.684235,208.688034 
	C147.568878,211.981750 150.578018,216.341721 154.351273,217.431610 
	C161.685776,219.550171 169.566986,220.292099 177.254700,220.527573 
	C185.037445,220.765945 192.854965,219.506393 200.667679,219.302200 
	C203.969742,219.215897 207.290344,220.388870 210.619171,220.502731 
	C211.930252,220.547577 213.789215,219.615158 214.545914,218.531998 
	C223.396500,205.863083 232.054214,193.059692 240.836685,180.342789 
	C243.024582,177.174713 241.986084,175.811432 238.532028,175.559464 
	C234.383057,175.256805 230.227676,175.042145 226.063278,174.304947 
	C226.095215,173.983032 226.110092,173.660339 226.956451,173.267578 
	C230.448044,173.452820 233.941986,173.602432 237.430603,173.832764 
	C241.368896,174.092789 241.840851,172.098251 240.176529,169.264587 
	C239.207184,167.614151 237.525009,166.394623 236.244400,164.911438 
	C234.862564,163.311005 233.265930,161.792374 232.296326,159.956406 
	C225.795929,147.647995 219.567993,135.194244 212.962326,122.943665 
	C210.665939,118.684860 206.131149,116.745522 201.837387,118.498978 
	C192.972473,122.119141 184.280792,126.308426 175.943176,131.016800 
	C171.440018,133.559814 170.213638,139.212296 172.240417,143.327469 
	C175.914856,150.788086 179.713242,158.195877 183.728836,165.477386 
	C186.415100,170.348419 190.674850,172.831573 196.449448,172.780380 
	C202.608429,172.725769 208.770676,173.037643 214.917145,173.561813 
z"/>
<path fill="#139C53" opacity="1.000000" stroke="none" 
	d="
M37.424938,129.759293 
	C41.169472,118.336617 45.860149,114.989021 55.870548,113.770538 
	C58.063320,113.503639 60.581264,111.072380 61.856300,108.973724 
	C66.370354,101.543762 68.628586,100.478241 76.820091,103.222549 
	C77.609032,103.486870 78.398399,103.751961 79.177078,104.044617 
	C88.473396,107.538467 90.909637,114.276695 85.188263,122.515472 
	C82.764862,126.005173 82.369026,128.900833 83.212914,132.951950 
	C85.285072,142.899414 82.369774,152.041962 77.229874,160.567429 
	C76.285782,162.133362 75.002846,163.552765 74.350418,165.224777 
	C72.995682,168.696671 75.079582,171.064255 78.779846,170.841614 
	C85.392319,170.443741 92.014885,170.015106 98.634911,169.986465 
	C109.271309,169.940445 117.020775,176.567215 117.670372,187.106125 
	C118.179802,195.371063 117.893448,203.772202 117.018417,212.012772 
	C115.976715,221.822845 111.993225,224.992050 102.281433,225.115967 
	C90.464088,225.266800 78.635658,225.548508 66.829681,225.190796 
	C60.421272,224.996643 54.264137,223.373032 47.939941,226.811996 
	C44.381744,228.746857 36.430153,224.037170 34.317268,219.865204 
	C27.856890,207.108994 21.685392,194.200638 14.965398,181.583771 
	C10.475668,173.154236 10.142983,173.331436 17.037292,165.402008 
	C17.766346,165.675125 17.994810,166.020325 18.213512,166.718262 
	C17.379478,168.194824 16.335434,169.222641 15.791047,170.468750 
	C15.214869,171.787628 14.393493,173.698044 14.921113,174.688522 
	C18.705624,181.792923 22.769226,188.750977 26.889620,195.668884 
	C27.168894,196.137772 28.631617,195.901794 29.692337,196.207275 
	C29.903145,197.099670 29.965557,197.778397 29.535049,198.751312 
	C30.046658,200.200165 31.051188,201.354843 32.028561,202.507874 
	C32.001404,202.506226 32.033028,202.461929 31.613808,202.562988 
	C31.806734,204.286804 32.418877,205.909592 33.093674,207.708282 
	C33.258465,208.242325 33.360607,208.600418 33.562668,209.379944 
	C34.120144,209.858276 34.577698,209.915161 35.017624,209.986023 
	C35.000000,210.000000 35.034344,209.970383 34.656166,210.412354 
	C35.039101,211.238129 35.800213,211.621918 36.703423,212.149551 
	C36.911430,212.681946 36.977341,213.070496 36.493301,213.465210 
	C35.953369,214.166550 35.963383,214.861710 36.040424,215.734467 
	C36.222229,216.273117 36.337009,216.634155 36.657352,217.304764 
	C38.573498,217.744965 40.284073,217.875580 42.003502,218.426575 
	C44.340439,222.778488 47.593285,221.095947 50.851044,220.509888 
	C54.132557,219.919556 57.510281,219.780594 60.854023,219.643997 
	C63.956894,219.517258 67.071251,219.705612 70.179298,219.663315 
	C74.292236,219.607361 78.405937,219.328156 82.515694,219.388992 
	C87.617668,219.464493 92.752945,220.254776 97.803604,219.853149 
	C101.541634,219.555893 106.132027,219.309875 106.996880,213.980103 
	C107.005928,214.004349 106.954239,214.007156 107.329857,213.980743 
	C108.191177,213.295273 109.068756,212.656326 109.103706,211.974197 
	C109.615280,201.990097 110.121567,192.001862 110.274895,182.009186 
	C110.290253,181.008209 108.001099,179.971893 106.505493,178.938522 
	C105.815865,178.392548 105.402191,177.860031 105.286659,177.121399 
	C103.632401,175.921600 101.713806,174.158966 99.721581,174.071411 
	C92.296761,173.745041 84.818153,174.383331 77.417160,173.855072 
	C71.434326,173.428024 67.444611,175.931244 63.724861,180.102570 
	C63.286366,179.793549 63.146420,179.624176 63.027328,179.476318 
	C63.048191,179.497849 63.016777,179.548904 63.207340,179.201965 
	C65.266388,174.959106 66.807365,170.861130 69.063446,167.204361 
	C76.454506,155.224594 85.978592,143.809998 77.373871,128.840134 
	C78.513313,127.499466 79.680641,126.489105 80.391342,125.222534 
	C82.628716,121.235237 86.784775,116.578514 83.227135,112.568748 
	C80.090324,109.033295 74.669785,106.512955 69.935295,105.851341 
	C67.713638,105.540871 64.708015,110.633690 62.122402,113.339676 
	C61.695801,113.786140 61.763531,114.718742 61.326214,115.138565 
	C60.063732,116.350594 58.675926,118.361015 57.309124,118.384056 
	C48.707481,118.529053 42.913227,122.740387 38.545269,129.938416 
	C37.922050,129.844193 37.673492,129.801743 37.424938,129.759293 
M29.049206,198.473648 
	C28.848288,198.405518 28.647369,198.337372 28.446449,198.269226 
	C28.515398,198.479797 28.584347,198.690353 29.049206,198.473648 
z"/>
<path fill="#139C53" opacity="1.000000" stroke="none" 
	d="
M181.093231,63.432140 
	C187.478134,70.823380 190.160629,78.652428 185.062088,88.076790 
	C184.256744,89.565430 185.571030,92.747314 186.732986,94.637505 
	C189.000458,98.326103 191.588058,102.216515 188.644547,106.091736 
	C184.863800,111.069160 180.479752,116.149277 173.438004,116.243607 
	C168.057510,116.315681 165.175934,112.200310 163.162979,107.929787 
	C161.728333,104.886177 160.136337,103.162056 156.668686,102.172806 
	C146.745834,99.342003 139.811111,92.514824 134.645859,83.781509 
	C133.885834,82.496483 133.529099,80.895683 132.557480,79.832336 
	C131.300064,78.456261 129.553101,76.509689 128.126999,76.597450 
	C126.754913,76.681892 125.190086,78.856209 124.287750,80.441216 
	C120.521805,87.056290 117.343254,94.032539 113.242599,100.422852 
	C109.047035,106.961090 99.814964,109.347496 92.278854,105.642326 
	C84.404831,101.771019 76.712784,97.344437 69.512062,92.339287 
	C61.842010,87.007904 61.017517,81.934998 65.364868,73.843369 
	C71.099953,63.168797 76.973694,52.567394 82.915268,42.006237 
	C84.040726,40.005749 85.947327,38.454113 87.152992,36.486698 
	C88.330902,34.564579 89.644638,32.445671 89.908882,30.291712 
	C91.107384,20.521936 96.197479,16.303207 106.151001,16.722027 
	C121.587448,17.371552 137.040451,17.643621 152.471176,18.390638 
	C154.210007,18.474817 156.358002,20.255980 157.411926,21.848656 
	C158.827682,23.988131 159.363159,26.710106 159.921387,29.880810 
	C158.252167,28.613873 157.084076,26.525564 155.572617,24.725588 
	C154.566666,23.527630 153.111664,21.959633 151.787643,21.890074 
	C136.532822,21.088629 121.265701,20.511604 105.998680,19.963190 
	C103.852943,19.886114 100.964935,19.133949 101.088570,23.224651 
	C101.034294,23.449827 100.953201,23.905920 100.584747,23.919477 
	C98.888863,24.766743 97.561440,25.600451 95.990158,26.724497 
	C94.500435,31.010752 93.254570,35.006668 91.719101,39.177021 
	C84.782516,51.009598 77.930183,62.557644 71.590988,74.380821 
	C69.103569,79.020088 70.664246,84.115623 74.789963,86.889030 
	C82.725014,92.223122 91.048294,97.075951 99.593643,101.365173 
	C103.849976,103.501587 108.251442,101.390671 110.801666,97.373352 
	C114.799919,91.074989 118.357941,84.497162 122.372650,77.804626 
	C123.414726,75.263100 124.238670,72.968506 124.863220,70.620865 
	C124.915306,70.425117 123.622581,69.871605 122.922943,69.323631 
	C122.870071,68.942459 122.891289,68.726128 123.345772,68.796143 
	C123.793312,67.117088 123.849945,65.155869 123.967178,62.804085 
	C124.063576,62.152481 124.099373,61.891434 124.427567,61.820114 
	C127.205460,65.186417 129.910767,68.218323 132.120819,71.576187 
	C134.882751,75.772552 137.237244,80.237068 139.826797,84.909767 
	C144.297592,92.824745 150.008942,98.360809 159.579880,98.300415 
	C160.660278,98.293594 162.071503,99.579643 162.771988,100.635811 
	C164.482544,103.214920 165.866211,106.010818 167.507507,108.936508 
	C168.005386,109.472450 168.377228,109.791336 168.955063,110.428177 
	C175.533051,114.306313 179.037415,109.073013 183.606598,105.970253 
	C186.599823,101.709648 185.654816,96.413498 181.707413,91.292496 
	C180.815140,90.134941 180.037598,87.874863 180.570801,86.796555 
	C184.127792,79.603378 184.779694,72.663216 180.178452,65.663078 
	C179.929108,65.283752 180.763382,64.192169 181.093231,63.432140 
z"/>
<path fill="#DAEEE2" opacity="1.000000" stroke="none" 
	d="
M101.142845,22.999474 
	C100.964935,19.133949 103.852943,19.886114 105.998680,19.963190 
	C121.265701,20.511604 136.532822,21.088629 151.787643,21.890074 
	C153.111664,21.959633 154.566666,23.527630 155.572617,24.725588 
	C157.084076,26.525564 158.252167,28.613873 159.864990,30.267597 
	C160.163696,29.955608 160.111496,30.006170 159.818420,30.395504 
	C160.033630,31.005991 160.541916,31.227144 161.050201,31.448296 
	C161.050201,31.448296 161.065598,31.480370 160.596222,31.393902 
	C160.742920,32.189930 161.358978,33.072426 161.978592,33.965286 
	C161.982147,33.975658 161.994888,33.996593 161.808838,34.161827 
	C161.596649,34.705894 161.757187,34.971466 162.260223,35.483871 
	C163.801224,37.551464 165.186386,39.258961 166.571564,40.966454 
	C166.571564,40.966450 166.504196,40.985966 166.439575,41.325676 
	C166.857574,42.245083 167.340210,42.824772 167.898071,43.790680 
	C168.822357,45.355614 169.671402,46.534336 170.520432,47.713058 
	C170.852448,47.132538 171.184464,46.552017 171.516479,45.971497 
	C171.749268,46.331409 171.982056,46.691326 171.729401,47.344292 
	C172.520966,49.411907 173.797974,51.186474 175.074982,52.961040 
	C175.074982,52.961040 175.005081,52.995358 174.789932,53.279198 
	C175.454498,55.381836 176.334213,57.200634 177.177200,59.382042 
	C177.363480,60.641747 177.586517,61.538845 178.062805,62.752270 
	C179.201859,63.030415 180.087692,62.992233 180.973511,62.954052 
	C180.973511,62.954052 181.115585,63.172684 181.104401,63.302414 
	C180.763382,64.192169 179.929108,65.283752 180.178452,65.663078 
	C184.779694,72.663216 184.127792,79.603378 180.570801,86.796555 
	C180.037598,87.874863 180.815140,90.134941 181.707413,91.292496 
	C185.654816,96.413498 186.599823,101.709648 183.309418,105.808060 
	C182.432846,105.454239 182.168701,105.094696 182.048096,104.435135 
	C185.715851,100.582359 182.313370,98.089638 181.380081,95.469727 
	C176.374649,98.354401 171.706467,101.044716 166.839508,103.849586 
	C167.467606,104.960724 168.110916,106.098747 168.404572,107.601463 
	C167.830444,108.217255 167.605957,108.468361 167.381470,108.719452 
	C165.866211,106.010818 164.482544,103.214920 162.771988,100.635811 
	C162.071503,99.579643 160.660278,98.293594 159.579880,98.300415 
	C150.008942,98.360809 144.297592,92.824745 139.963577,84.583603 
	C140.378464,83.617500 140.715729,83.301529 141.305115,83.202499 
	C145.744080,91.016190 151.370621,96.226776 160.792114,96.189110 
	C162.744659,96.181305 164.705154,98.160591 167.617996,99.743637 
	C170.961121,98.255707 175.876556,96.797905 178.082474,91.473900 
	C175.522263,92.838142 172.962051,94.202385 170.082245,95.736931 
	C169.968246,94.400902 169.799957,93.889450 169.935822,93.788857 
	C170.980896,93.015167 172.082947,92.318146 173.171082,91.603035 
	C178.832199,87.882530 182.571594,78.144241 180.541718,72.282135 
	C178.638687,66.786316 175.470551,61.823044 172.947220,56.661457 
	C169.090576,48.772514 162.855164,42.067600 157.855804,34.706390 
	C155.672501,31.491627 154.048889,27.896761 152.223969,24.570887 
	C138.790100,24.052977 125.023598,23.512909 111.256050,23.001410 
	C109.161156,22.923578 107.061348,22.978214 104.980728,22.988766 
	C104.997650,23.005949 105.034859,23.036627 105.129295,22.810570 
	C104.852348,22.711063 104.480965,22.837614 103.738846,22.974773 
	C102.626358,22.990080 101.884598,22.994778 101.142845,22.999474 
z"/>
<path fill="#25A25E" opacity="1.000000" stroke="none" 
	d="
M37.100876,129.825500 
	C37.673492,129.801743 37.922050,129.844193 38.511223,130.293121 
	C35.884819,135.324738 32.867756,139.918869 29.974911,144.589935 
	C28.784962,146.511353 27.862450,148.598389 26.553249,150.868561 
	C23.599897,156.206528 20.911589,161.286026 18.223278,166.365524 
	C17.994810,166.020325 17.766346,165.675125 17.271755,165.166412 
	C21.376608,155.863525 25.556126,146.624542 30.228109,137.641708 
	C31.750391,134.714798 34.557396,132.456055 37.100876,129.825500 
z"/>
<path fill="#139C53" opacity="1.000000" stroke="none" 
	d="
M177.213943,59.019432 
	C176.334213,57.200634 175.454498,55.381836 174.812759,53.247654 
	C176.706299,54.638798 178.361877,56.345329 180.034470,58.709488 
	C180.298370,59.907043 180.545242,60.446980 180.792114,60.986916 
	C180.791687,61.428806 180.791275,61.870689 180.882172,62.633316 
	C180.087692,62.992233 179.201859,63.030415 178.110199,62.386631 
	C177.674225,60.809586 177.444077,59.914505 177.213943,59.019432 
z"/>
<path fill="#139C53" opacity="1.000000" stroke="none" 
	d="
M166.848480,40.640560 
	C165.186386,39.258961 163.801224,37.551464 162.887314,35.389732 
	C163.774033,34.860649 164.189484,34.785805 164.604950,34.710960 
	C165.445099,36.578861 166.285263,38.446762 166.848480,40.640560 
z"/>
<path fill="#139C53" opacity="1.000000" stroke="none" 
	d="
M171.330276,45.590496 
	C171.184464,46.552017 170.852448,47.132538 170.520432,47.713058 
	C169.671402,46.534336 168.822357,45.355614 167.920547,43.235046 
	C167.589020,41.619045 167.310257,40.944901 167.031494,40.270752 
	C168.402359,41.917000 169.773224,43.563248 171.330276,45.590496 
z"/>
<path fill="#139C53" opacity="1.000000" stroke="none" 
	d="
M175.475861,52.735363 
	C173.797974,51.186474 172.520966,49.411907 171.652588,47.555641 
	C173.333069,49.152523 174.604904,50.831104 175.475861,52.735363 
z"/>
<path fill="#27A360" opacity="1.000000" stroke="none" 
	d="
M161.975037,33.954922 
	C161.358978,33.072426 160.742920,32.189930 160.603668,31.410065 
	C161.442093,31.559376 161.803711,31.606058 162.610046,32.308971 
	C162.694870,33.295109 162.334961,33.625019 161.975037,33.954922 
z"/>
<path fill="#DAEEE2" opacity="1.000000" stroke="none" 
	d="
M161.978592,33.965294 
	C162.334961,33.625019 162.694870,33.295109 163.091766,32.567921 
	C163.408691,32.504211 163.688614,32.837784 163.616058,33.134743 
	C162.840683,33.397621 162.417786,33.697109 161.994888,33.996597 
	C161.994888,33.996593 161.982147,33.975658 161.978592,33.965294 
z"/>
<path fill="#27A360" opacity="1.000000" stroke="none" 
	d="
M180.867874,60.678139 
	C180.545242,60.446980 180.298370,59.907043 180.082870,59.058571 
	C180.390701,59.289810 180.667160,59.829586 180.867874,60.678139 
z"/>
<path fill="#27A360" opacity="1.000000" stroke="none" 
	d="
M166.841461,40.383286 
	C167.310257,40.944901 167.589020,41.619045 167.845306,42.848827 
	C167.340210,42.824772 166.857574,42.245083 166.450684,41.292419 
	C166.526413,40.919453 166.651443,40.495819 166.841461,40.383286 
z"/>
<path fill="#27A360" opacity="1.000000" stroke="none" 
	d="
M161.808838,34.161827 
	C162.417786,33.697109 162.840683,33.397621 163.652649,33.299576 
	C164.155151,33.693592 164.268555,33.886158 164.493454,34.394844 
	C164.189484,34.785805 163.774033,34.860649 162.731476,35.029633 
	C161.757187,34.971466 161.596649,34.705894 161.808838,34.161827 
z"/>
<path fill="#27A360" opacity="1.000000" stroke="none" 
	d="
M161.106262,31.079861 
	C160.541916,31.227144 160.033630,31.005991 159.791199,30.371437 
	C160.425491,30.209164 160.793900,30.460295 161.106262,31.079861 
z"/>
<path fill="#DAEEE2" opacity="1.000000" stroke="none" 
	d="
M226.075073,174.789398 
	C230.227676,175.042145 234.383057,175.256805 238.532028,175.559464 
	C241.986084,175.811432 243.024582,177.174713 240.836685,180.342789 
	C232.054214,193.059692 223.396500,205.863083 214.545914,218.531998 
	C213.789215,219.615158 211.930252,220.547577 210.619171,220.502731 
	C207.290344,220.388870 203.969742,219.215897 200.667679,219.302200 
	C192.854965,219.506393 185.037445,220.765945 177.254700,220.527573 
	C169.566986,220.292099 161.685776,219.550171 154.351273,217.431610 
	C150.578018,216.341721 147.568878,211.981750 144.684235,208.688034 
	C143.099533,206.878601 142.045807,206.418823 139.492279,206.422440 
	C135.406998,206.428223 128.850632,205.923172 127.767082,203.583374 
	C125.757454,199.243820 125.508461,192.897842 127.172211,188.356781 
	C129.147278,182.966080 135.719604,184.409622 140.078384,185.350662 
	C143.747787,186.142883 144.857147,184.670486 146.927612,182.659378 
	C149.591248,180.072083 152.713593,176.654877 155.975708,176.238586 
	C164.568695,175.142044 173.344193,175.480789 182.046646,175.234207 
	C184.621307,175.161240 187.194366,174.969955 189.768692,174.958984 
	C196.558777,174.930008 203.349182,174.970215 210.904633,174.945953 
	C212.121094,174.791824 212.572372,174.674606 213.023636,174.557404 
	C213.428833,174.538681 213.834045,174.519958 214.976776,174.559967 
	C219.167908,174.675598 222.621490,174.732498 226.075073,174.789398 
M227.858170,193.341629 
	C231.578995,188.377014 235.299805,183.412399 239.020615,178.447769 
	C238.864944,177.910034 238.709290,177.372299 238.553619,176.834564 
	C231.928238,176.834564 225.302322,176.785599 218.677704,176.856720 
	C215.691437,176.888794 212.709244,177.200775 209.722488,177.313354 
	C205.516968,177.471909 201.261017,180.033325 197.078384,176.851089 
	C196.381577,176.320953 194.820831,176.795242 193.691101,176.989929 
	C190.341049,177.567230 186.175003,179.808456 183.827530,178.565979 
	C177.591187,175.265121 171.407196,177.360611 165.256790,177.002228 
	C157.809814,176.568237 151.707642,179.162262 147.288834,185.619904 
	C145.994034,187.512100 143.294693,188.443237 141.239105,189.814850 
	C139.467621,193.818268 137.964615,198.870422 141.436798,203.830383 
	C141.727631,200.863953 142.018463,197.897507 142.309296,194.931076 
	C142.774994,194.948700 143.240707,194.966324 143.706406,194.983948 
	C143.803345,195.874405 143.972565,196.763763 143.986374,197.655502 
	C144.187271,210.633881 153.123306,218.165283 165.971741,216.181870 
	C166.761383,216.059967 167.594986,215.928528 168.369095,216.050095 
	C172.117493,216.638702 175.852859,217.844528 179.592239,217.842224 
	C186.823303,217.837769 194.050262,217.028015 201.286407,216.837738 
	C204.729660,216.747177 208.190155,217.312195 212.040558,217.611145 
	C216.965363,210.034668 222.200775,201.980331 227.858170,193.341629 
M136.151962,199.234131 
	C136.469818,195.371933 136.787674,191.509720 137.105057,187.653305 
	C129.504105,187.103897 128.130630,188.114868 127.992027,194.032349 
	C127.783974,202.914642 128.796188,204.095795 136.768936,203.868088 
	C136.581436,202.590027 136.398849,201.345474 136.151962,199.234131 
z"/>
<path fill="#DAEEE2" opacity="1.000000" stroke="none" 
	d="
M214.931488,173.189514 
	C208.770676,173.037643 202.608429,172.725769 196.449448,172.780380 
	C190.674850,172.831573 186.415100,170.348419 183.728836,165.477386 
	C179.713242,158.195877 175.914856,150.788086 172.240417,143.327469 
	C170.213638,139.212296 171.440018,133.559814 175.943176,131.016800 
	C184.280792,126.308426 192.972473,122.119141 201.837387,118.498978 
	C206.131149,116.745522 210.665939,118.684860 212.962326,122.943665 
	C219.567993,135.194244 225.795929,147.647995 232.296326,159.956406 
	C233.265930,161.792374 234.862564,163.311005 236.244400,164.911438 
	C237.525009,166.394623 239.207184,167.614151 240.176529,169.264587 
	C241.840851,172.098251 241.368896,174.092789 237.430603,173.832764 
	C233.941986,173.602432 230.448044,173.452820 226.075317,173.198044 
	C221.773270,173.148849 218.352386,173.169189 214.931488,173.189514 
M224.664658,152.504440 
	C224.107910,151.663940 223.551163,150.823441 223.018463,149.198425 
	C219.562637,141.699341 216.403107,134.044281 212.562317,126.747826 
	C209.160828,120.285934 205.182465,118.738358 198.564011,121.598152 
	C191.424210,124.683212 184.568008,128.502167 177.840500,132.432953 
	C174.179443,134.572052 172.717636,138.502472 174.561447,142.425858 
	C178.165039,150.093918 181.999374,157.695480 186.394333,164.925720 
	C187.829437,167.286621 191.226471,169.730377 193.853958,169.879059 
	C208.296494,170.696381 222.778595,170.816376 237.247864,171.142258 
	C237.446686,171.146759 237.655273,170.718109 238.493378,169.787720 
	C236.285110,168.177200 234.128937,166.604675 231.892960,164.299088 
	C230.910355,161.690552 230.180161,158.943085 228.849762,156.525986 
	C228.061493,155.093842 226.325836,154.183151 224.664658,152.504440 
z"/>
<path fill="#4CB079" opacity="1.000000" stroke="none" 
	d="
M214.924316,173.375671 
	C218.352386,173.169189 221.773270,173.148849 225.651031,173.232681 
	C226.110092,173.660339 226.095215,173.983032 226.069183,174.547180 
	C222.621490,174.732498 219.167908,174.675598 215.263916,174.457504 
	C214.817276,174.047150 214.851807,173.802307 214.924316,173.375671 
z"/>
<path fill="#4CB079" opacity="1.000000" stroke="none" 
	d="
M212.840836,174.389984 
	C212.572372,174.674606 212.121094,174.791824 211.319122,174.869766 
	C211.531616,174.627853 212.094833,174.425201 212.840836,174.389984 
z"/>
<path fill="#06994C" opacity="1.000000" stroke="none" 
	d="
M37.043251,213.459030 
	C36.977341,213.070496 36.911430,212.681946 36.635635,211.787491 
	C35.961948,210.844513 35.498146,210.407440 35.034344,209.970383 
	C35.034344,209.970383 35.000000,210.000000 35.067345,209.470612 
	C34.577374,208.946991 34.020061,208.952759 33.462749,208.958527 
	C33.360607,208.600418 33.258465,208.242325 33.553509,207.739960 
	C33.311474,205.884460 32.672249,204.173187 32.033028,202.461929 
	C32.033028,202.461929 32.001404,202.506226 32.050728,202.106628 
	C31.409359,200.623734 30.718666,199.540436 30.027969,198.457138 
	C29.965557,197.778397 29.903145,197.099670 29.492359,195.893982 
	C25.033777,187.885498 20.923573,180.403961 17.755991,174.638229 
	C21.577738,166.283905 24.834892,159.163757 28.373207,151.844177 
	C29.694353,149.872345 30.796284,148.132935 31.760469,146.320267 
	C33.393330,143.250473 34.235901,139.223251 36.725368,137.301834 
	C39.072460,135.490280 40.075470,133.512482 41.238853,131.169357 
	C44.235497,125.133980 48.671059,120.696793 55.888382,121.063599 
	C60.614502,121.303787 65.290802,122.524292 71.597260,123.573128 
	C68.067619,121.277267 65.562836,119.648033 63.058056,118.018791 
	C63.283909,117.647339 63.509758,117.275887 63.735611,116.904434 
	C68.939362,117.850266 73.041214,120.904823 77.251694,124.759911 
	C73.199379,126.646599 74.603645,129.285370 75.901001,131.503143 
	C80.107719,138.694397 78.840645,145.526901 74.987427,152.300369 
	C70.924469,159.442551 66.839592,166.572342 62.802216,173.728928 
	C61.335754,176.328369 61.449097,178.004608 63.016777,179.548904 
	C63.016777,179.548904 63.048191,179.497849 62.483322,179.374390 
	C61.749466,180.168610 61.580475,181.086304 61.444832,181.997040 
	C61.478176,181.990067 61.545155,182.002563 61.624329,181.486572 
	C59.903446,181.557831 57.681957,181.713562 56.467094,182.900024 
	C55.778118,183.572906 56.739105,185.935257 56.853592,187.694626 
	C56.682858,188.220261 56.615532,188.587997 56.123398,188.627701 
	C55.453514,188.850906 55.208439,189.402145 54.974815,189.974548 
	C54.986267,189.995728 54.943985,189.972290 54.605942,189.855438 
	C53.881287,190.822037 53.494682,191.905487 52.948181,193.238953 
	C52.629063,193.848434 52.469841,194.207932 52.128693,194.853088 
	C50.324135,198.238358 48.701500,201.337952 47.100937,204.447983 
	C47.123001,204.458405 47.108070,204.491608 47.039566,204.512466 
	C46.971062,204.533325 46.869194,204.634003 46.584690,204.836060 
	C44.778019,207.657486 43.255852,210.276825 41.538712,213.349579 
	C41.850998,214.104843 42.358253,214.406693 42.968613,214.612976 
	C43.071712,214.517426 42.897739,214.296555 42.417870,214.280411 
	C41.750599,214.815140 41.563202,215.366028 41.335884,215.829407 
	C41.295959,215.741928 41.116096,215.673828 40.695217,215.445160 
	C39.000156,215.809402 37.725971,216.402298 36.451790,216.995178 
	C36.337009,216.634155 36.222229,216.273117 36.647934,215.751770 
	C37.140030,214.880630 37.091640,214.169830 37.043251,213.459030 
M70.605476,133.952530 
	C71.736870,134.352066 72.868256,134.751587 73.999649,135.151123 
	C74.355942,134.474884 74.712234,133.798645 75.068535,133.122406 
	C70.755096,130.230530 66.441666,127.338661 61.514519,124.035332 
	C61.013542,126.544357 60.774948,127.739288 60.540913,128.911407 
	C47.929501,127.468430 47.929501,127.468430 44.860271,131.967453 
	C54.515953,128.190933 61.247211,134.110077 68.597015,137.494003 
	C68.830582,136.928589 69.064148,136.363174 69.297714,135.797775 
	C66.919029,134.031616 64.540337,132.265472 62.161648,130.499313 
	C62.418880,130.082779 62.676109,129.666245 62.933342,129.249695 
	C65.297775,130.666092 67.662201,132.082504 70.605476,133.952530 
M52.272526,155.166443 
	C47.434681,152.896301 42.596832,150.626160 37.758984,148.356033 
	C37.401447,149.111130 37.043915,149.866226 36.686378,150.621323 
	C40.839508,152.650253 45.110989,154.472809 49.111786,156.767365 
	C52.954472,158.971191 56.516735,161.663986 60.202217,164.141907 
	C60.622601,163.567749 61.042984,162.993576 61.463367,162.419403 
	C58.612949,160.121185 55.762527,157.822968 52.272526,155.166443 
M48.360374,180.289764 
	C42.991501,177.369766 37.622623,174.449768 32.253750,171.529770 
	C32.055897,171.960968 31.858044,172.392151 31.660191,172.823334 
	C36.091038,178.501892 50.575878,185.463760 54.492378,183.216354 
	C52.440952,182.273422 50.718464,181.481689 48.360374,180.289764 
z"/>
<path fill="#06994C" opacity="1.000000" stroke="none" 
	d="
M104.988518,177.327515 
	C105.402191,177.860031 105.815865,178.392548 106.542435,179.335968 
	C107.473640,182.403183 108.357010,185.031464 108.641876,187.723068 
	C108.983215,190.948257 108.813751,194.227509 108.736603,197.692200 
	C108.703621,198.360992 108.799538,198.820953 108.813019,199.616974 
	C108.784279,200.869019 108.837975,201.785019 108.768478,202.889389 
	C108.577477,203.369583 108.495522,203.657364 108.212227,204.338821 
	C107.668121,207.826752 107.311180,210.916946 106.954239,214.007156 
	C106.954239,214.007156 107.005928,214.004349 106.714828,213.694580 
	C103.773972,216.112061 100.693489,217.366226 96.748512,217.353317 
	C85.507500,217.316605 74.265549,217.683975 63.023266,217.733795 
	C62.008797,217.738297 60.989262,216.598160 60.316925,215.945435 
	C61.112144,215.807007 61.562519,215.712753 62.439934,215.716629 
	C65.827103,215.533310 68.902885,215.668854 71.724052,214.886398 
	C78.245918,213.077560 84.621185,212.664795 91.393272,213.753967 
	C94.845375,214.309174 98.713676,212.604843 102.317970,211.638809 
	C103.147957,211.416336 103.666557,210.032135 104.328445,209.182556 
	C104.081886,208.671326 103.835320,208.160110 103.588760,207.648880 
	C97.202179,213.214172 90.332771,210.602173 83.550941,209.932404 
	C81.940910,209.773407 80.257347,210.166534 78.627960,210.431030 
	C73.082779,211.331131 67.546692,212.287292 61.737556,213.194244 
	C61.288315,213.185608 61.108658,213.204803 60.637497,212.982819 
	C60.458080,209.823364 60.749477,206.893417 60.560963,203.994675 
	C60.511494,203.233994 58.974159,202.570053 58.120102,201.861694 
	C57.850128,202.800293 57.335114,203.745483 57.360077,204.676163 
	C57.415787,206.753571 57.740959,208.823761 57.567097,210.907883 
	C56.136345,209.008209 55.094845,207.097534 54.055214,204.891754 
	C54.039398,204.400681 54.021706,204.204727 54.082397,203.669067 
	C58.374210,195.970993 62.388500,188.486511 66.921272,181.330444 
	C68.298050,179.156876 71.085403,176.479370 73.262474,176.447113 
	C83.831154,176.290512 94.411987,176.954315 104.988518,177.327515 
M100.104454,193.528275 
	C101.004555,195.740845 101.904655,197.953415 102.804749,200.165985 
	C103.365082,199.972473 103.925415,199.778961 104.485748,199.585449 
	C104.207840,197.853088 103.929939,196.120743 103.658684,194.429886 
	C104.724548,193.906586 105.770874,193.392868 107.967125,192.314590 
	C104.398659,190.942017 102.098717,187.614960 100.104454,193.528275 
z"/>
<path fill="#DBEFE3" opacity="1.000000" stroke="none" 
	d="
M63.207340,179.201965 
	C61.449097,178.004608 61.335754,176.328369 62.802216,173.728928 
	C66.839592,166.572342 70.924469,159.442551 74.987427,152.300369 
	C78.840645,145.526901 80.107719,138.694397 75.901001,131.503143 
	C74.603645,129.285370 73.199379,126.646599 77.251694,124.759911 
	C73.041214,120.904823 68.939362,117.850266 63.735611,116.904434 
	C63.509758,117.275887 63.283909,117.647339 63.058056,118.018791 
	C65.562836,119.648033 68.067619,121.277267 71.597260,123.573128 
	C65.290802,122.524292 60.614502,121.303787 55.888382,121.063599 
	C48.671059,120.696793 44.235497,125.133980 41.238853,131.169357 
	C40.075470,133.512482 39.072460,135.490280 36.725368,137.301834 
	C34.235901,139.223251 33.393330,143.250473 31.760469,146.320267 
	C30.796284,148.132935 29.694353,149.872345 28.090908,151.675415 
	C27.291065,151.340775 27.054680,150.975433 26.818295,150.610092 
	C27.862450,148.598389 28.784962,146.511353 29.974911,144.589935 
	C32.867756,139.918869 35.884819,135.324738 38.885887,130.344910 
	C42.913227,122.740387 48.707481,118.529053 57.309124,118.384056 
	C58.675926,118.361015 60.063732,116.350594 61.326214,115.138565 
	C61.763531,114.718742 61.695801,113.786140 62.122402,113.339676 
	C64.708015,110.633690 67.713638,105.540871 69.935295,105.851341 
	C74.669785,106.512955 80.090324,109.033295 83.227135,112.568748 
	C86.784775,116.578514 82.628716,121.235237 80.391342,125.222534 
	C79.680641,126.489105 78.513313,127.499466 77.373871,128.840134 
	C85.978592,143.809998 76.454506,155.224594 69.063446,167.204361 
	C66.807365,170.861130 65.266388,174.959106 63.207340,179.201965 
M79.957428,121.240746 
	C83.340515,114.713905 83.071266,113.717789 77.016838,110.361946 
	C70.259956,106.616760 68.882660,106.993462 65.191826,113.418060 
	C69.964920,116.225006 74.729950,119.027206 79.957428,121.240746 
z"/>
<path fill="#E7F4EC" opacity="1.000000" stroke="none" 
	d="
M57.956348,210.896881 
	C57.740959,208.823761 57.415787,206.753571 57.360077,204.676163 
	C57.335114,203.745483 57.850128,202.800293 58.120102,201.861694 
	C58.974159,202.570053 60.511494,203.233994 60.560963,203.994675 
	C60.749477,206.893417 60.458080,209.823364 60.451923,213.194275 
	C60.362598,214.427811 60.167339,215.208694 59.972076,215.989594 
	C60.989262,216.598160 62.008797,217.738297 63.023266,217.733795 
	C74.265549,217.683975 85.507500,217.316605 96.748512,217.353317 
	C100.693489,217.366226 103.773972,216.112061 106.705780,213.670319 
	C106.132027,219.309875 101.541634,219.555893 97.803604,219.853149 
	C92.752945,220.254776 87.617668,219.464493 82.515694,219.388992 
	C78.405937,219.328156 74.292236,219.607361 70.179298,219.663315 
	C67.071251,219.705612 63.956894,219.517258 60.854023,219.643997 
	C57.510281,219.780594 54.132557,219.919556 50.851044,220.509888 
	C47.593285,221.095947 44.340439,222.778488 42.012863,218.411865 
	C42.013374,217.976776 42.031406,217.946960 42.383720,217.919266 
	C43.485752,216.264679 44.235477,214.637772 44.992401,213.005432 
	C44.999599,213.000000 45.010395,212.985840 45.358551,212.944946 
	C47.129852,211.261642 48.553001,209.619263 50.163937,208.156647 
	C50.476967,208.456177 50.602211,208.575958 50.619659,209.023438 
	C48.794968,212.411819 47.078064,215.472473 45.361164,218.533112 
	C45.718117,218.967514 46.075073,219.401901 46.432026,219.836304 
	C48.660820,218.551208 50.889614,217.266113 53.533871,215.993378 
	C58.355934,216.711395 58.201260,213.839523 57.956348,210.896881 
z"/>
<path fill="#E7F4EC" opacity="1.000000" stroke="none" 
	d="
M105.286659,177.121399 
	C94.411987,176.954315 83.831154,176.290512 73.262474,176.447113 
	C71.085403,176.479370 68.298050,179.156876 66.921272,181.330444 
	C62.388500,188.486511 58.374210,195.970993 53.817627,203.849487 
	C52.558804,205.811661 51.643131,207.253693 50.727455,208.695724 
	C50.602211,208.575958 50.476967,208.456177 50.198784,207.796417 
	C49.056854,206.316818 48.067863,205.377182 47.078869,204.437561 
	C48.701500,201.337952 50.324135,198.238358 52.427582,195.031982 
	C52.758068,196.772675 52.607738,198.620102 52.457405,200.467545 
	C52.869930,200.581375 53.282452,200.695206 53.694973,200.809052 
	C54.470825,198.616913 55.246681,196.424774 56.332489,194.064606 
	C58.947308,189.920731 61.252174,185.944885 63.692169,181.782410 
	C63.892670,181.144577 63.958038,180.693390 64.023407,180.242188 
	C67.444611,175.931244 71.434326,173.428024 77.417160,173.855072 
	C84.818153,174.383331 92.296761,173.745041 99.721581,174.071411 
	C101.713806,174.158966 103.632401,175.921600 105.286659,177.121399 
M51.523426,202.579300 
	C51.462955,202.819687 51.402485,203.060059 51.342014,203.300446 
	C51.491760,203.145432 51.641502,202.990417 51.523426,202.579300 
z"/>
<path fill="#D5ECDF" opacity="1.000000" stroke="none" 
	d="
M26.553251,150.868561 
	C27.054680,150.975433 27.291065,151.340775 27.809750,151.874878 
	C24.834892,159.163757 21.577738,166.283905 17.755991,174.638229 
	C20.923573,180.403961 25.033777,187.885498 29.343962,195.680328 
	C28.631617,195.901794 27.168894,196.137772 26.889620,195.668884 
	C22.769226,188.750977 18.705624,181.792923 14.921113,174.688522 
	C14.393493,173.698044 15.214869,171.787628 15.791047,170.468750 
	C16.335434,169.222641 17.379478,168.194824 18.213516,166.718262 
	C20.911589,161.286026 23.599897,156.206528 26.553251,150.868561 
z"/>
<path fill="#E7F4EC" opacity="1.000000" stroke="none" 
	d="
M107.329857,213.980743 
	C107.311180,210.916946 107.668121,207.826752 108.381470,204.175934 
	C108.907669,203.330521 108.958931,203.025757 108.891678,202.701004 
	C108.837975,201.785019 108.784279,200.869019 108.832832,199.166626 
	C108.911880,198.081253 108.888687,197.782288 108.865494,197.483337 
	C108.813751,194.227509 108.983215,190.948257 108.641876,187.723068 
	C108.357010,185.031464 107.473640,182.403183 106.818405,179.349426 
	C108.001099,179.971893 110.290253,181.008209 110.274895,182.009186 
	C110.121567,192.001862 109.615280,201.990097 109.103706,211.974197 
	C109.068756,212.656326 108.191177,213.295273 107.329857,213.980743 
z"/>
<path fill="#E7F4EC" opacity="1.000000" stroke="none" 
	d="
M36.657356,217.304764 
	C37.725971,216.402298 39.000156,215.809402 40.727261,215.755035 
	C41.463924,216.844681 41.747665,217.395828 42.031403,217.946960 
	C42.031406,217.946960 42.013374,217.976776 42.004013,217.991486 
	C40.284073,217.875580 38.573498,217.744965 36.657356,217.304764 
z"/>
<path fill="#E7F4EC" opacity="1.000000" stroke="none" 
	d="
M31.613808,202.562988 
	C32.672249,204.173187 33.311474,205.884460 33.490860,207.564041 
	C32.418877,205.909592 31.806734,204.286804 31.613808,202.562988 
z"/>
<path fill="#E7F4EC" opacity="1.000000" stroke="none" 
	d="
M29.535049,198.751312 
	C30.718666,199.540436 31.409359,200.623734 32.077885,202.108276 
	C31.051188,201.354843 30.046658,200.200165 29.535049,198.751312 
z"/>
<path fill="#D5ECDF" opacity="1.000000" stroke="none" 
	d="
M63.724861,180.102570 
	C63.958038,180.693390 63.892670,181.144577 63.154785,181.739349 
	C62.125340,181.923294 61.768410,181.963638 61.411484,182.003998 
	C61.580475,181.086304 61.749466,180.168610 62.462463,179.352844 
	C63.146420,179.624176 63.286366,179.793549 63.724861,180.102570 
z"/>
<path fill="#E7F4EC" opacity="1.000000" stroke="none" 
	d="
M34.656166,210.412354 
	C35.498146,210.407440 35.961948,210.844513 36.493538,211.643631 
	C35.800213,211.621918 35.039101,211.238129 34.656166,210.412354 
z"/>
<path fill="#E7F4EC" opacity="1.000000" stroke="none" 
	d="
M33.562668,209.379944 
	C34.020061,208.952759 34.577374,208.946991 35.084969,209.456635 
	C34.577698,209.915161 34.120144,209.858276 33.562668,209.379944 
z"/>
<path fill="#E7F4EC" opacity="1.000000" stroke="none" 
	d="
M36.493301,213.465210 
	C37.091640,214.169830 37.140030,214.880630 36.580910,215.574142 
	C35.963383,214.861710 35.953369,214.166550 36.493301,213.465210 
z"/>
<path fill="#E7F4EC" opacity="1.000000" stroke="none" 
	d="
M28.851250,198.687286 
	C28.584347,198.690353 28.515398,198.479797 28.446449,198.269226 
	C28.647369,198.337372 28.848288,198.405518 28.851250,198.687286 
z"/>
<path fill="#06994C" opacity="1.000000" stroke="none" 
	d="
M122.954880,68.513962 
	C122.891289,68.726128 122.870071,68.942459 122.835144,69.692947 
	C122.104263,72.328712 121.429459,74.434479 120.487854,76.770477 
	C116.765152,82.869698 113.348518,88.762291 109.840790,94.600159 
	C107.082764,99.190285 103.034843,101.080299 98.524170,98.743675 
	C91.184021,94.941322 83.953247,90.775780 77.227684,85.988846 
	C72.166161,82.386299 71.764023,78.820267 74.720047,73.337387 
	C78.967781,65.458641 83.586685,57.780003 88.500732,50.018852 
	C89.256660,50.026810 89.559013,50.031860 89.803017,50.448662 
	C87.845032,57.976707 85.163879,64.545441 80.180405,70.324226 
	C78.081673,72.757881 78.101440,77.091660 77.421806,80.612579 
	C77.289940,81.295769 78.379814,82.214775 79.297424,83.627388 
	C80.072884,79.658974 80.151291,76.399460 81.397469,73.673866 
	C82.676849,70.875626 85.733231,68.861465 86.895752,66.043663 
	C90.014542,58.484135 92.536575,50.678394 95.534988,43.045876 
	C96.108307,43.104870 96.442238,43.088428 97.067261,43.262619 
	C100.323936,45.638096 103.293823,47.808868 106.995842,47.584721 
	C107.191101,47.089619 107.386360,46.594513 107.581627,46.099411 
	C106.188156,45.216267 104.794685,44.333126 103.150986,43.291397 
	C104.314613,42.472061 105.330788,41.756546 106.483032,41.055401 
	C106.619095,41.069775 106.891434,41.043114 107.216263,41.137970 
	C111.338341,47.482605 115.091377,53.760056 118.971237,59.958118 
	C119.721222,61.156204 120.967163,62.043827 121.992096,63.045601 
	C121.999863,63.016541 121.939560,63.014088 121.702339,63.369331 
	C121.961700,65.321037 122.458290,66.917496 122.954880,68.513962 
M87.321838,86.527405 
	C88.868622,87.672768 90.415413,88.818130 92.093529,90.060745 
	C91.919937,90.515564 91.536766,91.519485 91.153595,92.523407 
	C91.471703,92.854958 91.789803,93.186516 92.107910,93.518074 
	C93.442490,92.448959 94.777069,91.379845 96.111649,90.310730 
	C95.048370,89.032875 94.216118,87.312027 92.856270,86.602875 
	C91.520134,85.906090 89.648209,86.236717 87.321838,86.527405 
z"/>
<path fill="#DBEFE3" opacity="1.000000" stroke="none" 
	d="
M88.047150,50.015945 
	C83.586685,57.780003 78.967781,65.458641 74.720047,73.337387 
	C71.764023,78.820267 72.166161,82.386299 77.227684,85.988846 
	C83.953247,90.775780 91.184021,94.941322 98.524170,98.743675 
	C103.034843,101.080299 107.082764,99.190285 109.840790,94.600159 
	C113.348518,88.762291 116.765152,82.869698 120.643463,77.077927 
	C121.411377,77.449341 121.756897,77.743523 122.102417,78.037697 
	C118.357941,84.497162 114.799919,91.074989 110.801666,97.373352 
	C108.251442,101.390671 103.849976,103.501587 99.593643,101.365173 
	C91.048294,97.075951 82.725014,92.223122 74.789963,86.889030 
	C70.664246,84.115623 69.103569,79.020088 71.590988,74.380821 
	C77.930183,62.557644 84.782516,51.009598 92.036156,39.151733 
	C93.424515,38.635456 94.206223,38.318897 94.991333,38.293076 
	C95.009277,38.971188 95.023827,39.358559 94.708237,39.873634 
	C92.267792,43.339539 90.157471,46.677742 88.047150,50.015945 
z"/>
<path fill="#DAEEE2" opacity="1.000000" stroke="none" 
	d="
M121.984329,63.074661 
	C120.967163,62.043827 119.721222,61.156204 118.971237,59.958118 
	C115.091377,53.760056 111.338341,47.482605 107.197502,40.833134 
	C106.562492,39.935879 106.271072,39.438316 105.987427,38.968792 
	C105.995193,38.996826 106.048767,39.019527 105.975609,38.673183 
	C104.063828,35.173649 102.305489,31.968439 100.322830,28.908573 
	C99.896324,28.250340 98.659760,28.116985 97.414581,27.404392 
	C96.766548,26.856010 96.500282,26.645086 96.234016,26.434162 
	C97.561440,25.600451 98.888863,24.766743 100.820137,24.209694 
	C102.651459,24.646578 103.878929,24.806805 105.378250,25.178303 
	C109.915939,32.522575 114.200562,39.644547 118.409325,46.811073 
	C118.721207,47.342133 118.487625,48.193531 118.118240,48.955803 
	C116.960831,49.015594 116.192795,49.015594 115.680138,49.015594 
	C117.811287,53.768303 119.897804,58.421482 121.984329,63.074661 
z"/>
<path fill="#D9EEE2" opacity="1.000000" stroke="none" 
	d="
M141.053009,82.985558 
	C140.715729,83.301529 140.378464,83.617500 139.904419,84.259644 
	C137.237244,80.237068 134.882751,75.772552 132.120819,71.576187 
	C129.910767,68.218323 127.205460,65.186417 124.350754,61.465973 
	C122.151733,56.910828 120.321915,52.899548 118.791595,48.555206 
	C121.200500,50.740410 123.503899,53.125889 125.350609,55.823952 
	C126.567284,57.601524 126.793152,60.073143 128.056732,61.799065 
	C130.031937,64.496979 132.996231,66.541237 134.662079,69.378700 
	C137.188416,73.681816 138.960495,78.427750 141.053009,82.985558 
z"/>
<path fill="#25A25E" opacity="1.000000" stroke="none" 
	d="
M118.492096,48.888268 
	C120.321915,52.899548 122.151733,56.910828 124.058365,61.276253 
	C124.099373,61.891434 124.063576,62.152481 123.645592,62.709377 
	C122.822121,63.008183 122.380836,63.011135 121.939560,63.014088 
	C121.939560,63.014088 121.999863,63.016541 121.992096,63.045601 
	C119.897804,58.421482 117.811287,53.768303 115.680138,49.015594 
	C116.192795,49.015594 116.960831,49.015594 118.092499,48.981277 
	C118.456139,48.946957 118.492096,48.888264 118.492096,48.888268 
z"/>
<path fill="#DBEFE3" opacity="1.000000" stroke="none" 
	d="
M181.904556,104.735153 
	C182.168701,105.094696 182.432846,105.454239 182.994171,105.975967 
	C179.037415,109.073013 175.533051,114.306313 169.243134,110.272766 
	C169.578659,109.450493 169.832092,109.101601 170.413391,108.893997 
	C175.664932,110.723839 178.352890,106.608406 181.904556,104.735153 
z"/>
<path fill="#DAEEE2" opacity="1.000000" stroke="none" 
	d="
M94.987930,38.002335 
	C94.206223,38.318897 93.424515,38.635456 92.325752,38.977303 
	C93.254570,35.006668 94.500435,31.010752 95.990158,26.724499 
	C96.500282,26.645086 96.766548,26.856010 97.260056,27.775108 
	C97.249916,30.672110 97.012535,32.860939 96.554810,35.237293 
	C95.885620,36.283989 95.436775,37.143162 94.987930,38.002335 
z"/>
<path fill="#DAEEE2" opacity="1.000000" stroke="none" 
	d="
M122.372650,77.804626 
	C121.756897,77.743523 121.411377,77.449341 120.910248,76.847710 
	C121.429459,74.434479 122.104263,72.328712 122.866867,69.853622 
	C123.622581,69.871605 124.915306,70.425117 124.863220,70.620865 
	C124.238670,72.968506 123.414726,75.263100 122.372650,77.804626 
z"/>
<path fill="#DAEEE2" opacity="1.000000" stroke="none" 
	d="
M121.702339,63.369331 
	C122.380836,63.011135 122.822121,63.008183 123.584991,63.099937 
	C123.849945,65.155869 123.793312,67.117088 123.345779,68.796143 
	C122.458290,66.917496 121.961700,65.321037 121.702339,63.369331 
z"/>
<path fill="#D9EEE2" opacity="1.000000" stroke="none" 
	d="
M105.106400,24.967031 
	C103.878929,24.806805 102.651459,24.646578 101.188599,24.196136 
	C100.953201,23.905920 101.034294,23.449827 101.088570,23.224651 
	C101.884598,22.994778 102.626358,22.990080 103.962952,23.085022 
	C104.557793,23.184662 105.034859,23.036627 105.034859,23.036627 
	C105.034859,23.036627 104.997650,23.005949 104.882401,23.319298 
	C104.880234,24.077442 104.993317,24.522236 105.106400,24.967031 
z"/>
<path fill="#DAEEE2" opacity="1.000000" stroke="none" 
	d="
M170.085526,108.752701 
	C169.832092,109.101601 169.578659,109.450493 169.037140,109.954803 
	C168.377228,109.791336 168.005386,109.472450 167.507507,108.936508 
	C167.605957,108.468361 167.830444,108.217255 168.604340,107.762489 
	C169.464340,107.956779 169.774933,108.354744 170.085526,108.752701 
z"/>
<path fill="#06994C" opacity="1.000000" stroke="none" 
	d="
M105.378250,25.178303 
	C104.993317,24.522236 104.880234,24.077442 104.865479,23.302114 
	C107.061348,22.978214 109.161156,22.923578 111.256050,23.001410 
	C125.023598,23.512909 138.790100,24.052977 152.223969,24.570887 
	C154.048889,27.896761 155.672501,31.491627 157.855804,34.706390 
	C162.855164,42.067600 169.090576,48.772514 172.947220,56.661457 
	C175.470551,61.823044 178.638687,66.786316 180.541718,72.282135 
	C182.571594,78.144241 178.832199,87.882530 173.171082,91.603035 
	C172.082947,92.318146 170.980896,93.015167 169.935822,93.788857 
	C169.799957,93.889450 169.968246,94.400902 170.082245,95.736931 
	C172.962051,94.202385 175.522263,92.838142 178.082474,91.473900 
	C175.876556,96.797905 170.961121,98.255707 167.617996,99.743637 
	C164.705154,98.160591 162.744659,96.181305 160.792114,96.189110 
	C151.370621,96.226776 145.744080,91.016190 141.305115,83.202499 
	C138.960495,78.427750 137.188416,73.681816 134.662079,69.378700 
	C132.996231,66.541237 130.031937,64.496979 128.056732,61.799065 
	C126.793152,60.073143 126.567284,57.601524 125.350609,55.823952 
	C123.503899,53.125889 121.200500,50.740410 118.791595,48.555206 
	C118.492096,48.888264 118.456139,48.946957 118.481873,48.921486 
	C118.487625,48.193531 118.721207,47.342133 118.409325,46.811073 
	C114.200562,39.644547 109.915939,32.522575 105.378250,25.178303 
M149.313324,64.936905 
	C154.272949,61.497158 159.232574,58.057411 164.192200,54.617668 
	C163.798752,54.061081 163.405289,53.504494 163.011841,52.947906 
	C155.253815,57.512211 147.495804,62.076515 139.737793,66.640816 
	C139.843582,67.099609 139.949371,67.558395 140.055145,68.017181 
	C142.912643,67.089264 145.770142,66.161339 149.313324,64.936905 
M165.211273,85.803429 
	C174.633453,80.196014 178.169937,74.887886 175.025558,68.851349 
	C173.561081,79.087715 165.309708,82.252220 158.169022,86.470917 
	C158.609116,87.045403 159.049210,87.619888 159.489319,88.194374 
	C161.172089,87.506615 162.854843,86.818855 165.211273,85.803429 
M130.890320,48.242905 
	C136.134628,44.979973 141.378952,41.717041 146.623260,38.454113 
	C139.444214,37.721821 125.240982,47.590569 125.889557,51.840134 
	C127.443649,50.698303 128.858597,49.658714 130.890320,48.242905 
M172.473984,86.374847 
	C171.911530,85.945503 171.080688,85.022362 170.826614,85.160431 
	C166.594086,87.460678 162.433792,89.893814 158.256866,92.296509 
	C161.592819,94.403595 166.177704,92.667931 172.473984,86.374847 
z"/>
<path fill="#0D9A4F" opacity="1.000000" stroke="none" 
	d="
M170.413391,108.893997 
	C169.774933,108.354744 169.464340,107.956779 168.953979,107.397797 
	C168.110916,106.098747 167.467606,104.960724 166.839508,103.849586 
	C171.706467,101.044716 176.374649,98.354401 181.380081,95.469727 
	C182.313370,98.089638 185.715851,100.582359 182.048096,104.435135 
	C178.352890,106.608406 175.664932,110.723839 170.413391,108.893997 
z"/>
<path fill="#27A360" opacity="1.000000" stroke="none" 
	d="
M177.177200,59.382038 
	C177.444077,59.914505 177.674225,60.809586 177.856964,62.070301 
	C177.586517,61.538845 177.363480,60.641747 177.177200,59.382038 
z"/>
<path fill="#06994C" opacity="1.000000" stroke="none" 
	d="
M105.129295,22.810570 
	C105.034859,23.036627 104.557793,23.184662 104.333687,23.074413 
	C104.480965,22.837614 104.852348,22.711063 105.129295,22.810570 
z"/>
<path fill="#07994C" opacity="1.000000" stroke="none" 
	d="
M227.647186,193.633804 
	C222.200775,201.980331 216.965363,210.034668 212.040558,217.611145 
	C208.190155,217.312195 204.729660,216.747177 201.286407,216.837738 
	C194.050262,217.028015 186.823303,217.837769 179.592239,217.842224 
	C175.852859,217.844528 172.117493,216.638702 168.369095,216.050095 
	C167.594986,215.928528 166.761383,216.059967 165.971741,216.181870 
	C153.123306,218.165283 144.187271,210.633881 143.986374,197.655502 
	C143.972565,196.763763 143.803345,195.874405 143.706406,194.983948 
	C143.240707,194.966324 142.774994,194.948700 142.309296,194.931076 
	C142.018463,197.897507 141.727631,200.863953 141.436798,203.830383 
	C137.964615,198.870422 139.467621,193.818268 141.239105,189.814850 
	C143.294693,188.443237 145.994034,187.512100 147.288834,185.619904 
	C151.707642,179.162262 157.809814,176.568237 165.256790,177.002228 
	C171.407196,177.360611 177.591187,175.265121 183.827530,178.565979 
	C186.175003,179.808456 190.341049,177.567230 193.691101,176.989929 
	C194.820831,176.795242 196.381577,176.320953 197.078384,176.851089 
	C201.261017,180.033325 205.516968,177.471909 209.722488,177.313354 
	C212.709244,177.200775 215.691437,176.888794 218.677704,176.856720 
	C225.302322,176.785599 231.928238,176.834564 238.553619,176.834564 
	C238.709290,177.372299 238.864944,177.910034 239.020615,178.447769 
	C235.299805,183.412399 231.578995,188.377014 227.647186,193.633804 
M179.678375,189.444290 
	C179.678375,196.796249 179.678375,204.148209 179.678375,211.500183 
	C180.611130,211.480942 181.543900,211.461716 182.476654,211.442490 
	C182.476654,202.382416 182.476654,193.322357 182.476654,182.960571 
	C181.286789,185.530533 180.568161,187.082657 179.678375,189.444290 
M153.232819,192.941910 
	C152.507843,205.791641 154.599319,211.530655 161.747070,212.859161 
	C153.549591,206.606339 156.576355,197.888321 155.900681,188.406982 
	C154.451584,190.476776 153.904556,191.258102 153.232819,192.941910 
M206.072800,199.302567 
	C206.348465,182.465027 206.348465,182.465027 203.565765,180.979095 
	C203.565765,188.935242 203.565765,197.022278 203.565765,205.109329 
	C204.083298,205.144089 204.600815,205.178833 205.118347,205.213593 
	C205.402954,203.556107 205.687561,201.898605 206.072800,199.302567 
M148.248672,201.104309 
	C150.795471,202.544144 150.764954,200.858688 150.889587,199.045990 
	C151.147430,195.295502 151.600906,191.558197 151.840134,187.806946 
	C151.879883,187.183594 151.243134,186.517090 150.663803,185.361511 
	C146.830322,190.267685 147.593475,195.349106 148.248672,201.104309 
z"/>
<path fill="#0E9B51" opacity="1.000000" stroke="none" 
	d="
M136.184113,199.667526 
	C136.398849,201.345474 136.581436,202.590027 136.768936,203.868088 
	C128.796188,204.095795 127.783974,202.914642 127.992027,194.032349 
	C128.130630,188.114868 129.504105,187.103897 137.105057,187.653305 
	C136.787674,191.509720 136.469818,195.371933 136.184113,199.667526 
z"/>
<path fill="#07994C" opacity="1.000000" stroke="none" 
	d="
M231.972763,165.032135 
	C234.128937,166.604675 236.285110,168.177200 238.493378,169.787720 
	C237.655273,170.718109 237.446686,171.146759 237.247864,171.142258 
	C222.778595,170.816376 208.296494,170.696381 193.853958,169.879059 
	C191.226471,169.730377 187.829437,167.286621 186.394333,164.925720 
	C181.999374,157.695480 178.165039,150.093918 174.561447,142.425858 
	C172.717636,138.502472 174.179443,134.572052 177.840500,132.432953 
	C184.568008,128.502167 191.424210,124.683212 198.564011,121.598152 
	C205.182465,118.738358 209.160828,120.285934 212.562317,126.747826 
	C216.403107,134.044281 219.562637,141.699341 222.674652,149.518784 
	C217.411118,144.938660 213.918472,139.285812 211.909470,132.526291 
	C210.254562,126.958176 205.974854,124.059357 200.979996,124.774506 
	C202.503784,126.025002 203.696793,126.779724 204.599670,127.792969 
	C206.332367,129.737473 208.786041,131.602875 209.371948,133.901031 
	C211.180786,140.995865 215.280136,146.413269 220.103851,151.605255 
	C222.096344,153.749878 223.364136,156.567810 224.955139,159.384979 
	C224.957901,160.097534 224.967087,160.504623 224.653717,161.044571 
	C221.614838,163.047455 217.739578,163.653152 216.531982,167.169022 
	C216.825119,167.568558 217.118240,167.968094 217.411377,168.367630 
	C218.900421,167.555283 220.389465,166.742920 222.117249,166.051575 
	C222.570129,166.448105 222.784271,166.723618 222.768463,167.268082 
	C222.443588,168.133698 222.071045,169.097641 222.297623,169.268906 
	C224.105515,170.635391 231.350586,167.381622 232.022598,164.967804 
	C231.989975,164.969147 231.972763,165.032150 231.972763,165.032135 
M185.368195,132.337036 
	C186.620300,133.421371 187.933777,135.472031 189.112259,135.397171 
	C191.923477,135.218643 193.852020,131.596268 193.208832,128.223358 
	C191.752274,129.573318 190.486206,130.746750 189.220139,131.920166 
	C189.103943,131.508301 188.987762,131.096451 188.871582,130.684586 
	C187.692444,130.982681 186.513306,131.280777 185.368195,132.337036 
z"/>
<path fill="#DDF0E5" opacity="1.000000" stroke="none" 
	d="
M224.961548,159.079498 
	C223.364136,156.567810 222.096344,153.749878 220.103851,151.605255 
	C215.280136,146.413269 211.180786,140.995865 209.371948,133.901031 
	C208.786041,131.602875 206.332367,129.737473 204.599670,127.792969 
	C203.696793,126.779724 202.503784,126.025002 200.979996,124.774506 
	C205.974854,124.059357 210.254562,126.958176 211.909470,132.526291 
	C213.918472,139.285812 217.411118,144.938660 222.662628,149.911041 
	C223.551163,150.823441 224.107910,151.663940 224.928162,153.126648 
	C227.887207,158.127884 227.887207,158.127884 224.961548,159.079498 
z"/>
<path fill="#32A767" opacity="1.000000" stroke="none" 
	d="
M224.955139,159.384979 
	C227.887207,158.127884 227.887207,158.127884 225.103928,153.393417 
	C226.325836,154.183151 228.061493,155.093842 228.849762,156.525986 
	C230.180161,158.943085 230.910355,161.690552 231.932861,164.665619 
	C231.972763,165.032150 231.989975,164.969147 231.620514,165.040970 
	C228.500183,165.741562 225.749298,166.370346 222.998413,166.999130 
	C222.784271,166.723618 222.570129,166.448105 222.327271,165.759552 
	C224.551773,164.374405 226.804993,163.402298 229.058212,162.430206 
	C228.999039,162.042313 228.939865,161.654419 228.880692,161.266525 
	C227.579224,161.148239 226.277756,161.029968 224.976288,160.911697 
	C224.967087,160.504623 224.957901,160.097534 224.955139,159.384979 
z"/>
<path fill="#DBEFE4" opacity="1.000000" stroke="none" 
	d="
M70.316055,133.725708 
	C67.662201,132.082504 65.297775,130.666092 62.933342,129.249695 
	C62.676109,129.666245 62.418880,130.082779 62.161648,130.499313 
	C64.540337,132.265472 66.919029,134.031616 69.297714,135.797775 
	C69.064148,136.363174 68.830582,136.928589 68.597015,137.494003 
	C61.247211,134.110077 54.515953,128.190933 44.860271,131.967453 
	C47.929501,127.468430 47.929501,127.468430 60.540913,128.911407 
	C60.774948,127.739288 61.013542,126.544357 61.514519,124.035332 
	C66.441666,127.338661 70.755096,130.230530 75.068535,133.122406 
	C74.712234,133.798645 74.355942,134.474884 73.999649,135.151123 
	C72.868256,134.751587 71.736870,134.352066 70.316055,133.725708 
z"/>
<path fill="#D9EEE2" opacity="1.000000" stroke="none" 
	d="
M52.592316,155.345596 
	C55.762527,157.822968 58.612949,160.121185 61.463367,162.419403 
	C61.042984,162.993576 60.622601,163.567749 60.202217,164.141907 
	C56.516735,161.663986 52.954472,158.971191 49.111786,156.767365 
	C45.110989,154.472809 40.839508,152.650253 36.686378,150.621323 
	C37.043915,149.866226 37.401447,149.111130 37.758984,148.356033 
	C42.596832,150.626160 47.434681,152.896301 52.592316,155.345596 
z"/>
<path fill="#D5ECDF" opacity="1.000000" stroke="none" 
	d="
M48.678173,180.489868 
	C50.718464,181.481689 52.440952,182.273422 54.492378,183.216354 
	C50.575878,185.463760 36.091038,178.501892 31.660191,172.823334 
	C31.858044,172.392151 32.055897,171.960968 32.253750,171.529770 
	C37.622623,174.449768 42.991501,177.369766 48.678173,180.489868 
z"/>
<path fill="#D5ECDF" opacity="1.000000" stroke="none" 
	d="
M42.383717,217.919266 
	C41.747665,217.395828 41.463924,216.844681 41.148140,215.983688 
	C41.116096,215.673828 41.295959,215.741928 41.716824,215.701141 
	C42.391037,215.205765 42.644386,214.751160 42.897739,214.296555 
	C42.897739,214.296555 43.071712,214.517426 42.913185,214.235199 
	C42.414333,213.600693 42.074013,213.248428 41.733688,212.896179 
	C43.255852,210.276825 44.778019,207.657486 46.693432,205.057617 
	C47.231358,205.143616 47.376034,205.210144 47.520714,205.276672 
	C47.383167,205.014984 47.245621,204.753296 47.108070,204.491608 
	C47.108070,204.491608 47.123001,204.458405 47.100937,204.447983 
	C48.067863,205.377182 49.056854,206.316818 50.011002,207.616669 
	C48.553001,209.619263 47.129852,211.261642 45.296463,212.807953 
	C44.799004,212.662094 44.711788,212.612350 44.624573,212.562592 
	C44.744778,212.712021 44.864986,212.861450 44.985199,213.010880 
	C44.235477,214.637772 43.485752,216.264679 42.383717,217.919266 
z"/>
<path fill="#1E9F59" opacity="1.000000" stroke="none" 
	d="
M61.444832,181.997025 
	C61.768410,181.963638 62.125340,181.923294 63.019657,181.925995 
	C61.252174,185.944885 58.947308,189.920731 56.056538,193.947632 
	C55.267437,193.660858 55.064243,193.323044 55.024483,192.563385 
	C55.106609,191.418472 55.025299,190.695374 54.943985,189.972290 
	C54.943985,189.972290 54.986267,189.995728 55.341209,190.173889 
	C55.980167,189.886612 56.264187,189.421158 56.548203,188.955719 
	C56.615532,188.587997 56.682858,188.220261 57.186054,187.497360 
	C58.929668,185.428970 60.237411,183.715775 61.545155,182.002563 
	C61.545155,182.002563 61.478176,181.990067 61.444832,181.997025 
z"/>
<path fill="#D5ECDF" opacity="1.000000" stroke="none" 
	d="
M54.861046,192.985229 
	C55.064243,193.323044 55.267437,193.660858 55.746582,194.115662 
	C55.246681,196.424774 54.470825,198.616913 53.694973,200.809052 
	C53.282452,200.695206 52.869930,200.581375 52.457405,200.467545 
	C52.607738,198.620102 52.758068,196.772675 52.609505,194.746338 
	C52.469841,194.207932 52.629063,193.848434 53.240337,193.246582 
	C54.081944,192.997879 54.471493,192.991562 54.861046,192.985229 
z"/>
<path fill="#E7F4EC" opacity="1.000000" stroke="none" 
	d="
M61.624329,181.486572 
	C60.237411,183.715775 58.929668,185.428970 57.289459,187.339447 
	C56.739105,185.935257 55.778118,183.572906 56.467094,182.900024 
	C57.681957,181.713562 59.903446,181.557831 61.624329,181.486572 
z"/>
<path fill="#E7F4EC" opacity="1.000000" stroke="none" 
	d="
M55.024483,192.563385 
	C54.471493,192.991562 54.081944,192.997879 53.400230,192.996582 
	C53.494682,191.905487 53.881287,190.822037 54.605942,189.855438 
	C55.025299,190.695374 55.106609,191.418472 55.024483,192.563385 
z"/>
<path fill="#E7F4EC" opacity="1.000000" stroke="none" 
	d="
M42.417870,214.280411 
	C42.644386,214.751160 42.391037,215.205765 41.756744,215.788635 
	C41.563202,215.366028 41.750599,214.815140 42.417870,214.280411 
z"/>
<path fill="#E7F4EC" opacity="1.000000" stroke="none" 
	d="
M41.538715,213.349579 
	C42.074013,213.248428 42.414333,213.600693 42.810081,214.330750 
	C42.358253,214.406693 41.850998,214.104843 41.538715,213.349579 
z"/>
<path fill="#E7F4EC" opacity="1.000000" stroke="none" 
	d="
M47.039566,204.512466 
	C47.245621,204.753296 47.383167,205.014984 47.520714,205.276672 
	C47.376034,205.210144 47.231358,205.143616 46.977936,204.855545 
	C46.869194,204.634003 46.971062,204.533325 47.039566,204.512466 
z"/>
<path fill="#E7F4EC" opacity="1.000000" stroke="none" 
	d="
M56.123398,188.627701 
	C56.264187,189.421158 55.980167,189.886612 55.329758,190.152710 
	C55.208439,189.402145 55.453514,188.850906 56.123398,188.627701 
z"/>
<path fill="#DAEEE2" opacity="1.000000" stroke="none" 
	d="
M62.007137,213.222046 
	C67.546692,212.287292 73.082779,211.331131 78.627960,210.431030 
	C80.257347,210.166534 81.940910,209.773407 83.550941,209.932404 
	C90.332771,210.602173 97.202179,213.214172 103.588760,207.648880 
	C103.835320,208.160110 104.081886,208.671326 104.328445,209.182556 
	C103.666557,210.032135 103.147957,211.416336 102.317970,211.638809 
	C98.713676,212.604843 94.845375,214.309174 91.393272,213.753967 
	C84.621185,212.664795 78.245918,213.077560 71.724052,214.886398 
	C68.902885,215.668854 65.827103,215.533310 62.439335,215.417084 
	C62.010174,214.420288 62.008656,213.821182 62.007137,213.222046 
z"/>
<path fill="#1E9F59" opacity="1.000000" stroke="none" 
	d="
M50.619663,209.023438 
	C51.643131,207.253693 52.558804,205.811661 53.739243,204.189209 
	C54.021706,204.204727 54.039398,204.400681 53.979641,205.274445 
	C53.640934,209.295166 53.379673,212.638092 53.118408,215.981018 
	C50.889614,217.266113 48.660820,218.551208 46.432026,219.836304 
	C46.075073,219.401901 45.718117,218.967514 45.361164,218.533112 
	C47.078064,215.472473 48.794968,212.411819 50.619663,209.023438 
z"/>
<path fill="#D9EEE2" opacity="1.000000" stroke="none" 
	d="
M100.139595,193.145218 
	C102.098717,187.614960 104.398659,190.942017 107.967125,192.314590 
	C105.770874,193.392868 104.724548,193.906586 103.658684,194.429886 
	C103.929939,196.120743 104.207840,197.853088 104.485748,199.585449 
	C103.925415,199.778961 103.365082,199.972473 102.804749,200.165985 
	C101.904655,197.953415 101.004555,195.740845 100.139595,193.145218 
z"/>
<path fill="#D5ECDF" opacity="1.000000" stroke="none" 
	d="
M53.533875,215.993378 
	C53.379673,212.638092 53.640934,209.295166 53.977768,205.569550 
	C55.094845,207.097534 56.136345,209.008209 57.567097,210.907883 
	C58.201260,213.839523 58.355934,216.711395 53.533875,215.993378 
z"/>
<path fill="#D5ECDF" opacity="1.000000" stroke="none" 
	d="
M61.737556,213.194244 
	C62.008656,213.821182 62.010174,214.420288 62.012291,215.318954 
	C61.562519,215.712753 61.112144,215.807007 60.316925,215.945435 
	C60.167339,215.208694 60.362598,214.427811 60.743431,213.435455 
	C61.108658,213.204803 61.288315,213.185608 61.737556,213.194244 
z"/>
<path fill="#DBEFE3" opacity="1.000000" stroke="none" 
	d="
M108.768471,202.889389 
	C108.958931,203.025757 108.907669,203.330521 108.568649,203.778198 
	C108.495522,203.657364 108.577477,203.369583 108.768471,202.889389 
z"/>
<path fill="#DBEFE3" opacity="1.000000" stroke="none" 
	d="
M108.736603,197.692200 
	C108.888687,197.782288 108.911880,198.081253 108.915268,198.830566 
	C108.799538,198.820953 108.703621,198.360992 108.736603,197.692200 
z"/>
<path fill="#0D9A4F" opacity="1.000000" stroke="none" 
	d="
M79.726204,121.535080 
	C74.729950,119.027206 69.964920,116.225006 65.191826,113.418060 
	C68.882660,106.993462 70.259956,106.616760 77.016838,110.361946 
	C83.071266,113.717789 83.340515,114.713905 79.726204,121.535080 
z"/>
<path fill="#D5ECDF" opacity="1.000000" stroke="none" 
	d="
M51.657333,202.707352 
	C51.641502,202.990417 51.491760,203.145432 51.342014,203.300446 
	C51.402485,203.060059 51.462955,202.819687 51.657333,202.707352 
z"/>
<path fill="#DBEFE4" opacity="1.000000" stroke="none" 
	d="
M95.295609,42.970444 
	C92.536575,50.678394 90.014542,58.484135 86.895752,66.043663 
	C85.733231,68.861465 82.676849,70.875626 81.397469,73.673866 
	C80.151291,76.399460 80.072884,79.658974 79.297424,83.627388 
	C78.379814,82.214775 77.289940,81.295769 77.421806,80.612579 
	C78.101440,77.091660 78.081673,72.757881 80.180405,70.324226 
	C85.163879,64.545441 87.845032,57.976707 89.972870,50.191055 
	C91.899254,47.337944 93.597435,45.154194 95.295609,42.970444 
z"/>
<path fill="#D5ECDF" opacity="1.000000" stroke="none" 
	d="
M94.991333,38.293076 
	C95.436775,37.143162 95.885620,36.283989 96.958496,35.261948 
	C98.912514,35.708687 100.244469,36.314041 101.571968,36.929035 
	C103.066330,37.621330 104.556679,38.322319 106.048767,39.019527 
	C106.048767,39.019527 105.995193,38.996826 105.906067,39.329468 
	C105.993614,40.121750 106.170288,40.581387 106.346962,41.041023 
	C105.330788,41.756546 104.314613,42.472061 103.150986,43.291397 
	C104.794685,44.333126 106.188156,45.216267 107.581627,46.099411 
	C107.386360,46.594513 107.191101,47.089619 106.995842,47.584721 
	C103.293823,47.808868 100.323936,45.638096 96.944496,42.975391 
	C96.033211,41.580338 95.535789,40.663136 95.038368,39.745934 
	C95.023827,39.358559 95.009277,38.971188 94.991333,38.293076 
z"/>
<path fill="#DBEFE3" opacity="1.000000" stroke="none" 
	d="
M87.666618,86.321945 
	C89.648209,86.236717 91.520134,85.906090 92.856270,86.602875 
	C94.216118,87.312027 95.048370,89.032875 96.111649,90.310730 
	C94.777069,91.379845 93.442490,92.448959 92.107910,93.518074 
	C91.789803,93.186516 91.471703,92.854958 91.153595,92.523407 
	C91.536766,91.519485 91.919937,90.515564 92.093529,90.060745 
	C90.415413,88.818130 88.868622,87.672768 87.666618,86.321945 
z"/>
<path fill="#32A767" opacity="1.000000" stroke="none" 
	d="
M94.708237,39.873634 
	C95.535789,40.663136 96.033211,41.580338 96.653412,42.784767 
	C96.442238,43.088428 96.108307,43.104870 95.534988,43.045876 
	C93.597435,45.154194 91.899254,47.337944 90.031219,49.779305 
	C89.559013,50.031860 89.256660,50.026810 88.500732,50.018852 
	C90.157471,46.677742 92.267792,43.339539 94.708237,39.873634 
z"/>
<path fill="#1E9F59" opacity="1.000000" stroke="none" 
	d="
M106.483032,41.055397 
	C106.170288,40.581387 105.993614,40.121750 105.898293,39.301437 
	C106.271072,39.438316 106.562492,39.935879 106.872673,40.738274 
	C106.891434,41.043114 106.619095,41.069775 106.483032,41.055397 
z"/>
<path fill="#1E9F59" opacity="1.000000" stroke="none" 
	d="
M105.975609,38.673183 
	C104.556679,38.322319 103.066330,37.621330 101.571968,36.929035 
	C100.244469,36.314041 98.912514,35.708687 97.178833,35.074425 
	C97.012535,32.860939 97.249916,30.672110 97.641815,28.112564 
	C98.659760,28.116985 99.896324,28.250340 100.322830,28.908573 
	C102.305489,31.968439 104.063828,35.173649 105.975609,38.673183 
z"/>
<path fill="#DBEFE3" opacity="1.000000" stroke="none" 
	d="
M148.970490,65.085159 
	C145.770142,66.161339 142.912643,67.089264 140.055145,68.017181 
	C139.949371,67.558395 139.843582,67.099609 139.737793,66.640816 
	C147.495804,62.076515 155.253815,57.512211 163.011841,52.947906 
	C163.405289,53.504494 163.798752,54.061081 164.192200,54.617668 
	C159.232574,58.057411 154.272949,61.497158 148.970490,65.085159 
z"/>
<path fill="#DBEFE3" opacity="1.000000" stroke="none" 
	d="
M164.874451,85.967262 
	C162.854843,86.818855 161.172089,87.506615 159.489319,88.194374 
	C159.049210,87.619888 158.609116,87.045403 158.169022,86.470917 
	C165.309708,82.252220 173.561081,79.087715 175.025558,68.851349 
	C178.169937,74.887886 174.633453,80.196014 164.874451,85.967262 
z"/>
<path fill="#DDF0E5" opacity="1.000000" stroke="none" 
	d="
M130.581924,48.431015 
	C128.858597,49.658714 127.443649,50.698303 125.889557,51.840134 
	C125.240982,47.590569 139.444214,37.721821 146.623260,38.454113 
	C141.378952,41.717041 136.134628,44.979973 130.581924,48.431015 
z"/>
<path fill="#DDF0E5" opacity="1.000000" stroke="none" 
	d="
M172.355347,86.689560 
	C166.177704,92.667931 161.592819,94.403595 158.257111,92.296906 
	C162.433792,89.893814 166.594086,87.460678 170.826614,85.160431 
	C171.080688,85.022362 171.911530,85.945503 172.355347,86.689560 
z"/>
<path fill="#D5ECDF" opacity="1.000000" stroke="none" 
	d="
M179.763962,189.039551 
	C180.568161,187.082657 181.286789,185.530533 182.476654,182.960571 
	C182.476654,193.322357 182.476654,202.382416 182.476654,211.442490 
	C181.543900,211.461716 180.611130,211.480942 179.678375,211.500183 
	C179.678375,204.148209 179.678375,196.796249 179.763962,189.039551 
z"/>
<path fill="#DDF0E5" opacity="1.000000" stroke="none" 
	d="
M153.295166,192.490677 
	C153.904556,191.258102 154.451584,190.476776 155.900681,188.406982 
	C156.576355,197.888321 153.549591,206.606339 161.747070,212.859161 
	C154.599319,211.530655 152.507843,205.791641 153.295166,192.490677 
z"/>
<path fill="#DBEFE4" opacity="1.000000" stroke="none" 
	d="
M206.022491,199.771835 
	C205.687561,201.898605 205.402954,203.556107 205.118347,205.213593 
	C204.600815,205.178833 204.083298,205.144089 203.565765,205.109329 
	C203.565765,197.022278 203.565765,188.935242 203.565765,180.979095 
	C206.348465,182.465027 206.348465,182.465027 206.022491,199.771835 
z"/>
<path fill="#D5ECDF" opacity="1.000000" stroke="none" 
	d="
M148.104630,200.730865 
	C147.593475,195.349106 146.830322,190.267685 150.663803,185.361511 
	C151.243134,186.517090 151.879883,187.183594 151.840134,187.806946 
	C151.600906,191.558197 151.147430,195.295502 150.889587,199.045990 
	C150.764954,200.858688 150.795471,202.544144 148.104630,200.730865 
z"/>
<path fill="#D9EEE2" opacity="1.000000" stroke="none" 
	d="
M185.351181,131.957947 
	C186.513306,131.280777 187.692444,130.982681 188.871582,130.684586 
	C188.987762,131.096451 189.103943,131.508301 189.220139,131.920166 
	C190.486206,130.746750 191.752274,129.573318 193.208832,128.223358 
	C193.852020,131.596268 191.923477,135.218643 189.112259,135.397171 
	C187.933777,135.472031 186.620300,133.421371 185.351181,131.957947 
z"/>
<path fill="#DBEFE4" opacity="1.000000" stroke="none" 
	d="
M224.653717,161.044571 
	C226.277756,161.029968 227.579224,161.148239 228.880692,161.266525 
	C228.939865,161.654419 228.999039,162.042313 229.058212,162.430206 
	C226.804993,163.402298 224.551773,164.374405 222.088531,165.638535 
	C220.389465,166.742920 218.900421,167.555283 217.411377,168.367630 
	C217.118240,167.968094 216.825119,167.568558 216.531982,167.169022 
	C217.739578,163.653152 221.614838,163.047455 224.653717,161.044571 
z"/>
<path fill="#D5ECDF" opacity="1.000000" stroke="none" 
	d="
M222.768463,167.268082 
	C225.749298,166.370346 228.500183,165.741562 231.653137,165.039642 
	C231.350586,167.381622 224.105515,170.635391 222.297623,169.268906 
	C222.071045,169.097641 222.443588,168.133698 222.768463,167.268082 
z"/>
<path fill="#E7F4EC" opacity="1.000000" stroke="none" 
	d="
M44.992397,213.005432 
	C44.864986,212.861450 44.744778,212.712021 44.624573,212.562592 
	C44.711788,212.612350 44.799004,212.662094 44.948307,212.848846 
	C45.010395,212.985840 44.999599,213.000000 44.992397,213.005432 
z"/>
</svg>