<svg version="1.1" id="Layer_1" xmlns="http://www.w3.org/2000/svg" xmlns:xlink="http://www.w3.org/1999/xlink" x="0px" y="0px"
	 width="100%" viewBox="0 0 1024 928" enable-background="new 0 0 1024 928" xml:space="preserve">
<path fill="#000000" opacity="1.000000" stroke="none" 
	d="
M485.467468,800.356689 
	C482.979736,788.336548 481.425781,776.654541 481.604218,764.764343 
	C481.924011,743.453918 495.121613,728.737183 516.202332,725.623413 
	C529.069092,723.722961 541.703491,723.788147 554.259583,727.338501 
	C558.143921,728.436768 561.182312,726.766602 563.566772,723.953918 
	C583.598877,700.324524 610.656372,690.073547 639.797180,683.700745 
	C660.390381,679.197144 681.070007,679.238098 701.830139,682.237488 
	C705.903381,682.825989 709.823853,682.121216 713.496460,680.412598 
	C722.458679,676.242859 724.805481,668.210022 719.623657,659.833740 
	C719.186157,659.126526 718.754639,658.384155 718.177185,657.799683 
	C703.341309,642.783508 695.878662,623.266907 686.117432,605.167725 
	C681.532532,596.666565 677.427979,587.907715 672.996765,579.321899 
	C661.720459,557.473511 664.024048,536.305115 675.877136,515.482544 
	C684.646179,500.077789 696.828003,488.575378 713.067444,481.213226 
	C734.325867,471.575684 754.076477,459.050049 774.828003,448.433990 
	C788.310974,441.536407 802.600037,436.864960 817.764893,436.251770 
	C834.167114,435.588501 847.475220,441.639435 856.698547,456.034576 
	C873.658569,482.504547 886.403198,511.135345 900.175720,539.248230 
	C905.896545,550.925903 911.901428,562.457886 919.836243,572.828735 
	C931.028320,587.456787 939.104614,603.542297 943.050781,621.596619 
	C945.315674,631.958801 951.396545,639.670044 959.953491,645.461548 
	C982.082336,660.438782 978.193420,658.766235 982.346069,681.332642 
	C983.158081,685.745422 983.394836,690.279724 984.424683,694.633057 
	C985.895752,700.851379 983.833008,706.110413 980.799255,711.220032 
	C971.159180,727.456421 959.455627,742.235291 947.767944,756.971252 
	C916.623779,796.238159 889.499390,838.122253 865.140381,881.863525 
	C857.851440,894.952332 851.682617,896.591309 838.449524,889.312073 
	C836.009338,887.969849 833.639282,887.280212 830.829956,888.074463 
	C828.903687,888.619019 826.900513,888.389954 824.955627,887.612732 
	C816.581482,884.266479 807.788330,884.045349 799.327271,886.212402 
	C790.473511,888.479919 782.058655,889.289978 773.435303,885.757202 
	C769.773376,884.257019 765.904968,884.197693 762.290344,886.144348 
	C753.839661,890.695435 745.133240,890.946655 736.214905,887.824280 
	C731.331116,886.114380 726.600647,886.285339 721.537354,887.593506 
	C704.022888,892.118896 686.202881,890.996765 668.427612,889.613586 
	C663.450134,889.226196 659.142700,887.182251 655.949890,883.085754 
	C654.432312,881.138611 652.464050,879.922241 649.838440,881.049500 
	C638.152832,886.066284 626.244385,883.644653 614.382141,882.052124 
	C610.264893,881.499390 606.214111,880.459473 602.099609,879.877869 
	C590.621155,878.255371 582.391296,871.580261 575.295044,863.015564 
	C568.929077,855.332397 561.797485,848.187561 558.201965,838.579773 
	C557.278503,836.112183 555.239807,835.577209 553.030579,835.378601 
	C542.798767,834.458801 532.726501,832.984802 522.247437,834.045837 
	C505.409729,835.750732 489.552277,822.410583 486.606262,805.653931 
	C486.318390,804.016541 485.906799,802.400879 485.467468,800.356689 
M728.321838,700.299255 
	C720.097717,696.215210 711.225891,694.562012 702.212952,694.485657 
	C685.916199,694.347473 669.719910,697.220398 653.353821,696.306702 
	C648.414490,696.031006 643.349731,696.587463 638.443237,697.383972 
	C617.449585,700.791992 598.656799,708.236328 585.881470,726.594543 
	C582.369202,731.641602 578.268555,736.275391 574.565308,741.194641 
	C572.276550,744.235046 570.157593,745.108154 566.753418,742.432678 
	C562.626587,739.189026 557.661804,737.359192 552.360596,737.426208 
	C543.874146,737.533325 535.361877,737.678650 526.915283,738.426208 
	C511.179718,739.818909 503.906952,745.590881 501.746185,759.275818 
	C499.342163,774.501282 499.943268,789.782349 503.296082,804.913574 
	C504.825317,811.814941 508.917603,815.910767 515.650513,817.834961 
	C531.294617,822.305847 546.947571,826.013123 563.188477,820.819824 
	C567.453186,819.455994 570.088562,820.685669 572.318542,824.965942 
	C578.675842,837.168335 587.564392,847.578247 597.130493,857.378296 
	C599.910217,860.225952 602.929077,863.077026 606.682190,864.536133 
	C621.915100,870.458435 637.781250,873.109558 654.062805,871.891418 
	C660.544617,871.406494 666.719055,868.984741 672.065491,875.241455 
	C673.994568,877.499023 677.742126,877.766663 680.997009,877.785095 
	C683.491333,877.799194 685.986877,877.969971 688.477844,878.133118 
	C702.312805,879.039246 716.099731,879.355713 729.424194,874.546875 
	C731.750427,873.707336 733.938538,873.652100 736.199768,874.676941 
	C745.427673,878.859070 754.538269,878.937256 763.536743,873.921692 
	C765.953491,872.574768 768.352722,872.319458 771.136780,873.551941 
	C779.484436,877.247131 788.053406,876.776123 796.445862,873.720032 
	C799.468689,872.619385 802.044678,872.483276 805.063538,873.661621 
	C810.926086,875.949890 817.064941,877.179443 822.923523,873.857239 
	C826.518738,871.818420 829.124756,872.467163 832.371826,874.728760 
	C843.698181,882.617676 848.686829,881.361023 855.490112,869.463013 
	C855.655273,869.174316 855.774597,868.859253 855.940918,868.571350 
	C883.888367,820.180542 914.531616,773.624512 949.923218,730.289917 
	C954.132874,725.135437 958.366638,719.954773 962.048279,714.425903 
	C967.236206,706.634949 965.176147,702.024597 956.096252,700.285522 
	C953.006958,699.693848 949.835327,699.398010 946.688599,699.264160 
	C933.387390,698.698242 920.144043,697.270081 906.816528,696.992859 
	C882.403015,696.485168 857.952576,693.572754 833.655151,698.401306 
	C823.726440,700.374329 813.289673,698.523743 803.632874,702.491882 
	C802.215088,703.074524 801.055969,702.200684 799.994568,701.370361 
	C789.995056,693.548828 779.086731,692.713013 767.484314,697.102539 
	C764.628601,698.182983 761.827332,698.282043 758.710938,697.767944 
	C751.049683,696.504333 743.380493,696.621277 736.426514,700.826965 
	C733.812195,702.408081 731.446350,702.377136 728.321838,700.299255 
M883.729187,555.707336 
	C873.001221,532.962463 862.192871,510.269470 848.611450,489.015991 
	C839.198242,474.285370 825.449280,469.302094 808.753113,470.663025 
	C795.438171,471.748322 782.910034,475.873077 771.273254,482.137482 
	C750.907837,493.100739 730.804382,504.545563 710.085632,514.855225 
	C704.533936,517.617737 699.631226,521.450500 695.608948,526.193787 
	C685.174622,538.498596 679.119019,552.680969 686.153381,568.097595 
	C699.835510,598.083069 715.013916,627.394592 731.028687,656.216125 
	C739.563965,671.576965 751.695923,683.355774 769.949646,686.328308 
	C779.468750,687.878479 789.243896,687.312439 798.854919,687.417175 
	C834.325012,687.803955 869.755066,689.614868 905.221130,689.946777 
	C910.213196,689.993469 915.207642,690.188354 920.193115,690.459412 
	C931.332947,691.065002 942.498169,690.655884 953.640137,691.569580 
	C959.037354,692.012146 961.770020,688.884277 960.707520,683.912170 
	C958.755798,674.779419 955.419128,666.359131 946.901428,661.105042 
	C944.353699,659.533508 941.997437,657.654968 939.492737,656.009521 
	C932.212585,651.227112 927.460999,644.748474 925.346313,636.201721 
	C922.089661,623.039612 917.694153,610.290588 909.388428,599.325867 
	C899.278015,585.978577 891.160217,571.482910 883.729187,555.707336 
z"/>
<path fill="#000000" opacity="1.000000" stroke="none" 
	d="
M656.231873,440.719513 
	C650.569092,433.172882 646.492004,425.172394 643.609375,416.604584 
	C642.007080,411.842316 639.204163,408.694153 634.085999,408.408264 
	C620.346558,407.640778 608.208557,402.010376 596.845642,395.124420 
	C566.606995,376.799866 543.353027,351.947968 528.727905,319.429993 
	C525.614624,312.507751 521.968567,305.992981 514.046021,303.338837 
	C508.424469,301.455627 503.593353,302.836517 499.816925,307.508423 
	C497.010651,310.980164 495.238312,315.136688 494.491028,319.247864 
	C492.366730,330.935150 485.786346,340.398987 480.072266,350.284515 
	C471.320679,365.424957 462.438843,380.498169 453.245453,395.373169 
	C441.385193,414.563141 423.742645,423.941895 401.379272,425.239990 
	C382.842957,426.315948 365.739990,422.542480 349.996490,412.357849 
	C331.805054,400.589661 312.387909,390.936554 293.517059,380.338593 
	C278.923431,372.142792 265.668365,362.004791 256.038208,347.900482 
	C246.422470,333.817261 244.971832,319.237030 252.422852,303.546875 
	C263.172302,280.911041 276.003906,259.484253 289.482666,238.447006 
	C301.826172,219.181564 313.199921,199.491135 321.387817,178.044815 
	C326.596924,164.400833 335.664948,153.280853 345.672455,142.920135 
	C353.275482,135.048721 356.696289,125.665489 356.776245,114.882042 
	C356.791077,112.883057 356.913086,110.885056 356.944122,108.885956 
	C357.103210,98.638786 359.418396,89.635551 368.680176,83.292618 
	C374.270874,79.463799 379.175995,74.549210 384.041229,69.768387 
	C389.461609,64.442009 396.002777,62.845795 403.214020,62.875786 
	C424.890808,62.965939 446.424316,65.286392 467.964294,67.312759 
	C482.390015,68.669861 496.819824,69.909225 511.287079,70.546875 
	C537.421387,71.698753 563.557617,71.932922 589.695740,70.281837 
	C598.333862,69.736198 607.015808,69.843018 615.678711,69.743805 
	C621.574829,69.676285 623.996399,74.043991 626.053650,78.488441 
	C627.306641,81.195145 627.951172,84.208214 627.919006,87.234589 
	C627.881836,90.742996 628.629700,93.795052 631.509766,96.129539 
	C632.231079,96.714203 632.992859,97.808311 632.975403,98.652542 
	C632.875427,103.484665 636.174561,106.809616 637.814697,110.834709 
	C640.533020,117.505455 644.962158,122.221184 650.105286,126.809662 
	C654.952209,131.133911 657.834717,136.850601 659.059509,143.214569 
	C660.067322,148.450607 662.443176,152.574127 667.148865,155.172424 
	C674.837585,159.417847 678.982361,166.202133 680.949829,174.478790 
	C682.397095,180.567032 685.753906,185.244614 690.375183,189.392410 
	C700.067688,198.091919 706.215820,209.461075 712.888000,220.401199 
	C714.794312,223.526810 716.517700,226.766495 718.260254,229.988846 
	C720.970886,235.001160 722.350830,240.202957 720.135742,245.800110 
	C719.217896,248.119202 719.693481,250.166092 721.567627,251.651779 
	C733.922852,261.445862 738.756775,275.816406 744.917664,289.446564 
	C750.455444,301.698151 750.363586,313.831146 745.809937,326.304993 
	C742.566101,335.191040 740.781921,344.669586 734.656860,352.306793 
	C733.306213,353.990814 733.663757,355.544861 734.563599,357.367920 
	C739.273804,366.910736 743.748230,376.449890 750.451050,384.987854 
	C759.980286,397.126099 757.969971,417.727905 747.020325,428.649384 
	C736.276123,439.365906 725.188416,449.738739 711.927917,457.356934 
	C695.598450,466.738220 678.715637,464.379181 665.312012,451.160980 
	C662.100891,447.994293 659.079956,444.673798 656.231873,440.719513 
M432.206726,139.347748 
	C439.077637,151.536514 446.314545,163.502975 453.641632,175.424744 
	C460.763062,187.011887 471.670654,195.502182 478.803070,207.042236 
	C481.086487,210.736725 483.830872,214.108917 487.550323,216.520706 
	C489.084869,217.515717 489.736359,218.730270 489.531921,220.690445 
	C488.127533,234.153992 494.144562,244.133606 504.545654,251.938751 
	C506.195831,253.177124 507.514252,254.495132 508.174011,256.521301 
	C510.921570,264.959320 516.152039,271.422852 523.883850,275.807953 
	C525.749817,276.866241 527.013794,278.196686 527.036194,280.492676 
	C527.144775,291.640289 532.424438,300.907990 537.797913,310.163635 
	C542.674377,318.563171 549.985840,325.216064 554.829590,333.551117 
	C560.033630,342.505981 565.271484,351.391144 572.102295,359.191254 
	C585.384827,374.358551 600.761536,386.114838 621.666199,388.339233 
	C629.103760,389.130615 636.560242,389.761108 644.018005,390.337280 
	C647.890869,390.636475 649.637451,392.006622 648.979858,396.349579 
	C648.410217,400.112000 648.925110,404.200073 650.848755,407.530762 
	C657.590454,419.203735 664.244873,431.020874 674.692993,439.949768 
	C680.283325,444.727264 686.730103,446.028198 693.857117,443.685181 
	C698.635681,442.114197 703.175842,440.020233 707.476074,437.485138 
	C718.690186,430.874237 729.591064,423.817474 738.100830,413.709259 
	C740.706360,410.614349 741.897827,407.184082 740.885620,403.071808 
	C736.882751,386.809906 732.463379,370.785004 719.027588,359.213440 
	C717.655334,358.031616 716.628296,356.453033 715.414856,355.081757 
	C713.764648,353.216919 713.670837,351.404022 715.008423,349.204895 
	C721.211182,339.007324 724.784180,327.728424 728.215637,316.404083 
	C730.358643,309.332092 732.116394,302.027527 730.492615,294.756348 
	C727.046814,279.326111 720.879639,264.891724 711.251404,252.304016 
	C707.649292,247.594620 702.718262,244.058517 705.488586,237.137375 
	C705.745361,236.495972 705.304810,235.495667 705.015320,234.727097 
	C698.351624,217.037903 688.577942,201.385712 674.514648,188.602417 
	C672.788696,187.033508 670.914490,185.910263 670.571716,183.199936 
	C669.232117,172.608002 664.005981,164.500992 654.626831,159.188309 
	C652.532166,158.001816 650.996094,156.498199 650.687805,153.818619 
	C649.635071,144.668610 644.843384,137.630768 637.618652,132.245758 
	C634.889648,130.211716 633.477417,127.754509 632.740784,124.529808 
	C631.623291,119.638657 630.487610,114.211143 625.951172,111.593697 
	C619.853271,108.075256 617.848389,103.359253 618.797607,96.787239 
	C618.936462,95.825813 618.708801,94.790947 618.540466,93.808998 
	C617.401550,87.167068 614.073975,84.272850 607.346863,84.254364 
	C602.016418,84.239731 596.682190,84.305893 591.355286,84.494537 
	C542.713440,86.217194 494.142456,85.583275 445.678528,80.552307 
	C435.097260,79.453888 424.599701,77.414711 413.932678,77.298233 
	C404.766205,77.198128 402.151031,80.991562 405.129425,89.588112 
	C405.563995,90.842445 406.053986,92.098991 406.694031,93.257454 
	C415.067993,108.414124 423.473572,123.553314 432.206726,139.347748 
M493.302399,292.738220 
	C498.071014,277.713196 498.694092,263.004547 490.215454,248.886490 
	C468.860077,213.326965 447.537079,177.747986 426.225769,142.162033 
	C417.323669,127.297188 408.531036,112.366646 399.594604,97.522583 
	C395.643158,90.958931 392.528229,90.927696 387.234528,96.488205 
	C380.080780,104.002510 376.444672,112.529060 376.984222,123.116783 
	C377.558411,134.384003 374.104553,144.274796 365.639984,152.406509 
	C355.143158,162.490631 347.939514,174.861038 342.849548,188.449478 
	C338.799683,199.261139 333.458649,209.403854 327.422211,219.217850 
	C312.939026,242.764526 297.808624,265.903625 285.523560,290.775665 
	C276.653534,308.733704 279.481659,324.523010 291.803925,339.410675 
	C301.089722,350.629730 312.619690,359.195892 325.328278,365.908203 
	C343.454681,375.482086 361.158081,385.757629 378.826904,396.119446 
	C385.055542,399.772217 391.760529,402.102173 398.936981,403.284332 
	C412.311768,405.487579 432.405579,400.234741 441.021851,384.547272 
	C450.479736,367.327515 461.157715,350.782349 471.053619,333.797302 
	C478.759094,320.571808 487.294617,307.781647 493.302399,292.738220 
z"/>
<path fill="#000000" opacity="1.000000" stroke="none" 
	d="
M197.293396,902.404175 
	C189.512909,906.670410 182.010941,907.397217 173.968292,903.988525 
	C167.698639,901.331360 161.191284,899.125366 154.628632,897.296265 
	C145.906265,894.865051 140.580353,889.117554 136.433273,881.422913 
	C129.865967,869.237610 123.812576,856.810059 118.430695,844.083435 
	C97.947655,795.646729 73.900742,749.090698 45.618187,704.737488 
	C44.275623,702.632141 43.031826,700.461365 41.799129,698.288696 
	C36.785053,689.451294 38.483532,682.100159 47.183117,676.608459 
	C50.950897,674.229980 54.609360,672.098511 55.144844,667.115540 
	C55.208752,666.520935 55.666267,665.741577 56.171722,665.456970 
	C60.789104,662.856934 62.322445,657.935913 65.265404,654.065125 
	C69.061821,649.071716 71.204308,643.837402 72.425224,637.879578 
	C73.726768,631.528320 76.601959,625.807190 81.614204,621.627869 
	C86.408623,617.630249 89.272896,612.919250 89.320099,606.646423 
	C89.386719,597.794312 93.863304,591.208923 100.041573,585.458679 
	C103.289581,582.435791 105.725189,578.815308 106.635681,574.475464 
	C109.633156,560.187988 116.823250,547.798767 124.028061,535.408264 
	C125.953056,532.097717 127.974327,528.835815 130.103302,525.653137 
	C132.881165,521.500366 136.482895,518.453735 141.627563,517.581909 
	C144.041214,517.172913 146.196091,516.129578 146.674576,513.424866 
	C149.406586,497.981201 159.238403,486.519470 168.177887,474.489807 
	C176.067184,463.873413 186.494171,457.824707 199.405807,455.753448 
	C208.721481,454.259094 217.840698,451.008636 227.507248,452.640411 
	C229.932327,453.049774 231.599289,451.956360 232.952560,449.963959 
	C238.651917,441.572784 244.754745,433.507080 248.611267,423.921509 
	C254.613098,409.003754 273.909027,400.210999 289.207947,404.731934 
	C302.162506,408.560089 314.985352,412.723450 327.031433,418.931183 
	C339.428925,425.320068 348.053314,434.665863 349.766541,449.098328 
	C350.668610,456.697662 349.106140,464.010468 346.561035,471.132874 
	C342.590332,482.244781 336.676727,492.227264 328.794983,501.005493 
	C325.467987,504.710907 324.318329,508.615265 326.467072,513.354858 
	C332.544128,526.759644 333.447296,541.087158 332.876923,555.418762 
	C331.855194,581.093079 324.426300,605.184692 313.117645,628.123718 
	C309.123840,636.224976 303.482422,643.300415 298.342926,650.677612 
	C294.722839,655.873840 292.337646,661.366272 293.046844,667.922913 
	C293.785706,674.754272 298.102234,679.182678 304.975983,679.742554 
	C309.851807,680.139771 314.734314,679.469849 319.272949,678.019958 
	C324.949982,676.206360 330.594727,675.675964 336.469574,675.716553 
	C359.788910,675.877747 383.115112,675.959534 406.383820,677.614380 
	C425.971130,679.007385 440.935822,688.681458 452.159943,704.494934 
	C463.297180,720.185913 469.383484,737.369263 468.324829,756.912598 
	C467.676575,768.880493 467.720612,780.894348 467.534821,792.876709 
	C467.349396,804.835693 468.750641,816.838074 467.997833,828.818848 
	C467.000488,844.691162 464.417297,860.257385 456.867157,874.549988 
	C449.091736,889.269287 436.740021,896.278320 420.170990,897.346313 
	C389.484894,899.324097 358.929993,897.361694 328.344482,895.487244 
	C313.836304,894.598145 299.277618,895.108337 284.994293,897.547852 
	C268.661072,900.337402 252.791946,898.966553 237.069351,894.649414 
	C225.259705,891.406616 214.351883,893.148010 203.864319,899.050781 
	C201.833633,900.193726 199.717331,901.184570 197.293396,902.404175 
M192.289444,816.824219 
	C203.711578,797.475586 215.561020,778.391479 222.010880,756.522095 
	C224.385315,748.471130 230.155441,741.580505 230.892548,732.803345 
	C231.018646,731.301819 232.615860,730.942627 233.825256,730.382324 
	C245.510559,724.968506 251.241455,715.403137 252.757462,702.982727 
	C253.030365,700.746826 253.643066,698.822266 255.214981,697.144836 
	C261.425446,690.517212 264.264404,682.507019 264.613983,673.541443 
	C264.682434,671.786987 264.964050,670.304932 266.601532,669.264526 
	C279.754639,660.907288 286.760315,647.919434 292.976715,634.302490 
	C295.873962,627.956177 297.791016,621.199158 301.701874,615.265564 
	C307.688202,606.183105 312.337036,596.360229 315.498230,585.961853 
	C321.280518,566.941650 322.535950,548.055542 312.933044,529.632690 
	C310.244751,524.475281 308.285980,518.942566 305.813965,513.665649 
	C304.115967,510.040955 304.306976,507.633240 308.533234,505.879669 
	C312.382599,504.282471 315.917389,501.679565 318.012390,497.988098 
	C323.516998,488.288849 329.135773,478.596008 332.626923,467.934692 
	C336.704193,455.483673 334.209167,447.835358 323.641876,440.037354 
	C312.146515,431.554565 299.387970,425.502289 285.880096,420.957825 
	C278.057617,418.326111 271.504333,419.464905 265.543945,425.855469 
	C254.668884,437.515472 244.007553,449.123077 241.052795,465.620056 
	C240.313110,469.749878 238.001648,471.704163 233.355240,471.484100 
	C226.534744,471.160950 219.765152,472.516266 212.978989,473.278870 
	C193.164078,475.505615 176.514404,482.928650 165.296295,500.416382 
	C159.378159,509.642029 152.058853,518.046875 150.142776,529.332520 
	C149.809784,531.293884 148.485443,532.017090 146.737854,532.468872 
	C142.898483,533.461426 139.455627,535.461853 137.309769,538.690735 
	C127.634178,553.249817 117.778671,567.789795 114.757645,585.532349 
	C114.271828,588.385498 113.155281,590.329224 110.946648,592.125671 
	C103.665497,598.047668 98.709450,605.241028 99.078079,615.187927 
	C99.214325,618.864136 97.829430,621.719299 94.680717,624.107727 
	C87.661560,629.432068 84.260185,636.963623 83.365158,645.572693 
	C83.066109,648.449158 82.124359,650.510986 79.852516,652.338440 
	C74.640839,656.530640 70.505066,661.626038 70.504601,668.678345 
	C70.504318,672.895264 68.798882,675.166809 65.015518,676.442566 
	C63.782543,676.858276 62.675709,677.710327 61.581192,678.464355 
	C53.359150,684.129028 52.366135,688.478149 57.578163,696.918701 
	C89.578316,748.740845 118.429787,802.175476 140.873886,858.914490 
	C142.335587,862.609802 144.162079,866.249084 146.379257,869.536499 
	C149.705872,874.469055 153.208801,874.672913 157.631729,870.765991 
	C160.159195,868.533447 162.067947,865.801514 163.822449,862.958679 
	C173.185013,847.788025 182.533905,832.608826 192.289444,816.824219 
M173.673096,862.113647 
	C172.121719,864.871826 170.519119,867.602722 169.029816,870.394043 
	C166.068939,875.943420 167.569794,878.763489 173.638687,880.610474 
	C184.208313,883.827209 193.946533,882.313538 203.244263,876.544800 
	C212.969620,870.510681 223.254425,869.146484 234.372757,872.429443 
	C246.652649,876.055420 259.229187,876.528259 271.972748,875.041382 
	C285.857025,873.421326 299.781982,872.178772 313.811768,873.149536 
	C340.742493,875.012878 367.705963,875.680786 394.689056,874.668152 
	C408.962921,874.132446 420.275269,868.131104 427.989044,855.831543 
	C436.508514,842.247314 438.720428,827.024719 439.751190,811.454285 
	C440.709595,796.976074 438.764893,782.545898 439.457825,768.030579 
	C440.098389,754.612671 441.240662,741.068298 438.727570,727.656555 
	C435.733276,711.676758 419.734070,692.216309 397.526459,693.008118 
	C379.105438,693.664856 360.607117,691.781494 342.136047,691.521729 
	C326.668457,691.304260 311.144867,690.091736 295.727386,692.309814 
	C279.833496,694.596497 266.210297,701.215088 257.920471,715.524292 
	C229.791779,764.077881 201.974258,812.811707 173.673096,862.113647 
z"/>
<path fill="#000000" opacity="1.000000" stroke="none" 
	d="
M597.733948,723.746521 
	C613.201782,709.130981 632.106323,704.513916 652.148193,703.861450 
	C665.929260,703.412781 679.727844,704.103455 693.463257,702.082214 
	C699.578308,701.182373 705.807861,701.999878 711.870911,703.039795 
	C719.274048,704.309448 726.623596,706.043701 731.198486,712.563232 
	C733.414795,712.311890 734.523376,710.949585 735.844238,709.986023 
	C743.225830,704.601135 751.275208,703.140442 759.953247,706.047913 
	C762.191345,706.797791 764.100647,706.700378 766.193237,705.762939 
	C769.540222,704.263611 773.015808,703.158997 776.659485,702.525696 
	C784.884399,701.096191 791.822083,703.348206 797.359985,709.593018 
	C798.878540,711.305481 800.309509,713.162231 802.735229,711.533813 
	C807.977539,708.015015 813.901123,707.324036 819.916077,707.247070 
	C830.121399,707.116455 839.999146,704.521423 850.091064,703.540588 
	C866.095337,701.985107 882.037292,703.772217 897.993958,704.248901 
	C913.792114,704.720764 929.567566,705.938110 945.354858,706.793640 
	C948.803223,706.980530 952.259766,707.019043 955.413696,708.622742 
	C955.697327,711.369568 953.830017,712.784546 952.505249,714.376282 
	C912.741699,762.154907 878.659607,813.807861 847.987366,867.773499 
	C845.668640,871.853210 843.206604,873.027832 839.258179,870.321777 
	C836.377991,868.347900 833.331055,866.567566 830.687744,864.314575 
	C828.771912,862.681763 827.429871,862.649414 825.512085,864.137085 
	C819.218750,869.018921 812.401978,869.578857 805.388672,865.891846 
	C801.909912,864.062988 798.933899,864.637939 795.490295,866.192017 
	C787.686951,869.713440 779.708679,870.301086 772.048584,865.603516 
	C769.475647,864.025635 766.987366,863.912415 764.525269,865.424316 
	C754.292297,871.708069 744.107605,871.636414 733.886414,865.436035 
	C732.892151,864.832825 731.793640,864.200256 730.651184,865.105652 
	C723.311523,870.922302 714.411621,870.425354 705.868164,871.044006 
	C697.387817,871.658081 688.891418,871.043213 680.426636,870.268372 
	C674.567505,869.732178 672.211182,867.433472 670.274658,860.425598 
	C668.776611,859.583069 667.302368,860.258606 666.064331,860.929626 
	C655.377075,866.723022 644.072998,865.195007 632.848206,863.634460 
	C627.261780,862.857727 621.772461,861.351685 616.259216,860.088257 
	C610.027649,858.660156 605.011780,855.202698 600.800232,850.498535 
	C591.349182,839.941956 581.939819,829.349915 576.317383,816.072937 
	C572.062317,806.024963 570.595093,795.624512 572.435303,784.812012 
	C572.602234,783.831238 572.621765,782.824768 572.698975,781.829346 
	C572.876831,779.536255 572.873535,777.410583 569.744995,777.126892 
	C566.806030,776.860352 565.579651,778.169617 565.186462,781.041138 
	C563.957214,790.017700 563.562622,798.964966 565.656799,807.854675 
	C566.246887,810.359741 566.787842,812.690430 563.322144,813.091431 
	C560.366577,813.433228 556.868408,815.811584 555.348938,810.466370 
	C552.894409,801.831848 552.498596,793.066895 552.760315,784.227783 
	C553.086426,773.215393 554.461426,762.322754 557.513916,751.707092 
	C558.945251,746.729309 560.001587,746.436646 563.957214,749.398926 
	C571.617859,755.135803 571.612244,755.130493 578.252258,748.266907 
	C585.463745,740.812622 590.821106,731.890686 597.733948,723.746521 
M715.113708,789.590576 
	C715.346863,805.354370 718.354065,821.029175 716.567017,836.865173 
	C716.248718,839.685608 717.652954,841.886047 720.594360,842.229187 
	C723.196472,842.532776 725.179260,841.030640 725.716309,838.458923 
	C726.289856,835.712402 726.622437,832.869873 726.657288,830.064331 
	C726.818237,817.078552 725.007202,804.204712 724.237976,791.269043 
	C723.291870,775.359497 723.665771,759.692749 730.039062,744.740967 
	C732.435181,739.119568 732.162476,736.095398 728.555786,735.039185 
	C723.395935,733.528076 722.548767,738.056396 721.200867,741.213257 
	C714.706238,756.423706 713.629456,772.378906 715.113708,789.590576 
M622.489563,816.754578 
	C619.508728,804.835876 619.063354,792.789978 620.342834,780.596191 
	C621.001404,774.320129 621.235046,767.992615 621.462158,761.681213 
	C621.561279,758.927979 620.291260,756.711731 617.258423,756.419739 
	C614.619385,756.165710 612.786377,757.475281 612.152466,760.156555 
	C611.846985,761.448608 611.490051,762.751404 611.394531,764.066650 
	C610.466492,776.848877 609.478638,789.668823 610.406433,802.457764 
	C611.700195,820.291992 617.543274,836.236206 631.738831,848.167908 
	C634.136169,850.183044 636.679077,852.315125 639.448608,849.097839 
	C642.101074,846.016663 640.776550,843.170166 637.910400,840.976074 
	C630.049561,834.958069 625.404236,826.883728 622.489563,816.754578 
M809.209045,802.781616 
	C809.164917,805.777039 809.054626,808.773438 809.095154,811.767700 
	C809.136047,814.793335 809.756287,817.861511 813.561829,817.653931 
	C817.378052,817.445740 818.960327,814.800842 818.566772,811.032715 
	C818.165222,807.187622 818.665771,803.416016 819.332397,799.633789 
	C820.635132,792.242554 821.312561,784.878174 819.936340,777.341736 
	C818.711365,770.632812 818.150452,763.754883 818.982056,756.948242 
	C819.996277,748.646240 819.860291,740.348572 819.746399,732.031494 
	C819.702148,728.801147 818.918762,725.729858 817.507324,722.894287 
	C816.217590,720.302917 814.052612,718.754761 810.978210,719.832092 
	C807.896606,720.911865 807.731750,723.509644 808.520508,726.035217 
	C810.911682,733.692383 810.804138,741.530334 809.933777,749.294434 
	C809.056763,757.118103 808.383484,765.019714 809.593384,772.685425 
	C811.147888,782.534302 811.426941,792.153625 809.209045,802.781616 
M594.526123,803.677490 
	C599.058716,803.347534 599.793518,800.325195 599.443176,796.628296 
	C598.988403,791.829102 598.167908,787.047424 598.002869,782.241150 
	C597.610596,770.818970 599.153320,759.650818 603.643188,749.049927 
	C605.057068,745.711670 603.934814,743.469177 601.056030,742.047241 
	C598.050354,740.562622 596.443909,742.718628 595.156799,745.001892 
	C594.506104,746.156128 593.953613,747.389160 593.531494,748.645386 
	C587.949890,765.255798 587.051453,782.171021 590.211243,799.365540 
	C590.615845,801.567383 591.537537,803.076965 594.526123,803.677490 
z"/>
<path fill="#000000" opacity="1.000000" stroke="none" 
	d="
M533.631653,814.560791 
	C527.265320,812.981140 521.170471,812.059753 515.448364,809.646973 
	C513.060547,808.640076 511.618286,807.099548 511.082886,804.648621 
	C507.716583,789.239563 506.746643,773.776794 509.748749,758.165222 
	C510.846954,752.454346 514.106506,749.232910 519.570251,747.491455 
	C528.995239,744.487610 538.582031,746.236938 548.749329,744.957275 
	C547.549988,752.889893 545.721802,759.567261 544.809998,766.412781 
	C542.776550,781.678894 541.849670,796.855103 545.780945,811.942383 
	C546.630066,815.201233 545.457825,816.405457 542.394287,816.049377 
	C539.594238,815.723999 536.825256,815.131958 533.631653,814.560791 
z"/>
<path fill="#000000" opacity="1.000000" stroke="none" 
	d="
M691.556396,559.356873 
	C690.657593,544.758179 696.441528,533.683105 707.697876,525.462830 
	C717.159241,518.553284 727.935913,513.895691 738.425354,508.856171 
	C754.037415,501.355621 767.971863,490.723480 784.352051,484.673340 
	C792.191284,481.777863 800.081482,479.097870 808.401367,478.239288 
	C822.336487,476.801239 833.927124,480.692932 842.014160,493.074005 
	C853.255798,510.284790 862.466370,528.572205 871.099243,547.145813 
	C880.734497,567.876160 891.139099,588.119873 904.667480,606.632507 
	C910.459045,614.557922 914.203003,623.451721 916.193115,632.993896 
	C919.154480,647.193176 926.640991,657.922852 939.175354,665.320374 
	C944.176514,668.271851 949.096558,671.602356 950.719788,677.848267 
	C951.135010,679.446106 951.796875,680.973328 951.168152,683.077454 
	C941.882690,683.077454 932.579834,683.532166 923.342712,682.947815 
	C914.349915,682.378967 905.370300,682.461792 896.386047,682.247009 
	C864.085510,681.475037 831.783630,680.758484 799.482788,679.999695 
	C791.160828,679.804260 782.824524,679.778503 774.523438,679.236755 
	C761.523438,678.388245 751.563904,671.725525 743.877014,661.653564 
	C734.320679,649.132141 728.142944,634.631897 720.907288,620.778015 
	C711.425354,602.623291 702.395264,584.232971 693.088074,565.986206 
	C692.061646,563.973755 691.575562,561.969788 691.556396,559.356873 
M850.948669,547.375854 
	C848.734802,540.577026 846.601624,533.750549 844.290955,526.984802 
	C838.605347,510.336609 825.694763,500.708435 810.926758,492.948151 
	C808.561035,491.704987 806.233276,492.025665 804.853882,494.448792 
	C803.479736,496.862579 803.732178,499.309845 806.138794,501.094330 
	C807.335327,501.981537 808.655457,502.724243 809.983704,503.408112 
	C824.217285,510.736664 833.697266,521.777771 837.578003,537.576599 
	C842.652588,558.235657 852.778015,575.966187 867.939148,591.126343 
	C879.679993,602.866455 891.039246,615.145630 896.991699,631.248901 
	C898.116394,634.291748 900.774231,635.406677 903.952087,633.895508 
	C907.079529,632.408203 907.032410,629.949585 905.852478,627.156677 
	C903.253967,621.006226 900.200684,615.122925 896.260620,609.701050 
	C888.606506,599.168640 879.463928,589.930420 870.852783,580.227600 
	C862.399536,570.702759 854.999451,560.509644 850.948669,547.375854 
M883.201782,659.645874 
	C890.359619,654.932068 897.913086,651.180115 906.549622,650.079773 
	C910.179199,649.617432 913.477173,648.421753 912.637390,643.988586 
	C911.845215,639.806519 908.164612,640.017944 904.984863,640.502075 
	C889.760681,642.819885 877.588745,651.224182 865.923645,660.504211 
	C863.758240,662.226868 863.235413,664.823608 865.061768,667.194824 
	C867.119202,669.866150 869.525085,669.447815 872.030884,667.579407 
	C875.497986,664.994324 879.067383,662.546570 883.201782,659.645874 
M747.736938,517.986816 
	C742.852478,515.102661 739.580078,516.619873 739.361938,522.045410 
	C739.255859,524.682922 739.528748,527.357849 739.860046,529.986755 
	C740.811584,537.536499 745.002380,540.384216 752.304138,538.261597 
	C762.558533,535.280579 768.021606,527.100220 773.000732,518.541931 
	C774.287231,516.330811 773.402222,514.273865 771.300598,512.981567 
	C769.250305,511.720825 767.035828,511.822449 765.373352,513.618347 
	C763.807556,515.309753 762.686951,517.405151 761.194336,519.174011 
	C758.157959,522.772278 755.597656,526.987366 750.655457,528.424255 
	C748.214294,525.296387 749.472351,521.647827 747.736938,517.986816 
M924.682983,661.734131 
	C923.705383,658.212891 920.885742,657.905273 917.946411,657.971680 
	C907.564453,658.205994 897.966736,661.142883 889.133179,666.564209 
	C886.422546,668.227661 883.994507,670.456970 885.950378,673.840515 
	C887.964966,677.325500 891.005981,676.724792 894.141663,674.883545 
	C901.728088,670.428711 909.899536,667.825562 918.770264,667.706116 
	C922.244873,667.659302 924.500977,666.224060 924.682983,661.734131 
z"/>
<path fill="#000000" opacity="1.000000" stroke="none" 
	d="
M719.147583,319.987854 
	C714.773071,332.465912 710.714172,344.608002 701.818726,354.431274 
	C695.762024,361.119781 688.598938,366.028442 680.431763,369.644257 
	C674.858704,372.111572 674.787476,372.416473 678.384644,378.331268 
	C688.371399,375.308533 696.865356,369.729523 704.505920,362.635956 
	C706.098755,361.157135 707.426819,357.631836 710.352478,360.923187 
	C712.748657,363.618774 716.250366,365.810486 711.989502,370.324554 
	C702.736633,380.127228 691.285828,386.445496 679.441284,392.223328 
	C673.763977,394.992737 667.926758,397.466400 661.842102,399.287445 
	C658.202942,400.376526 656.661316,399.351166 656.585449,395.337463 
	C656.526611,392.225464 658.857239,388.539093 656.712891,386.238342 
	C654.104004,383.439178 649.620667,383.837006 645.902222,383.099884 
	C640.189697,381.967499 634.407471,381.175903 628.568481,381.215118 
	C612.690613,381.321747 599.513306,374.876923 587.987000,364.515533 
	C577.084839,354.715210 568.894470,342.894012 561.742065,330.136139 
	C558.199463,323.817200 552.933411,318.485229 548.693909,312.530914 
	C543.568787,305.332703 538.897095,297.868866 536.279663,289.283813 
	C534.639404,283.903748 533.778564,278.597565 536.093201,273.081268 
	C535.459412,272.609802 535.007019,272.056244 534.438599,271.882599 
	C523.840698,268.644775 516.928711,261.956696 514.653870,250.890106 
	C514.311890,249.226700 512.928711,248.540619 511.736359,247.649689 
	C508.405365,245.160782 504.966156,242.825317 502.378113,239.448975 
	C497.614655,233.234650 495.642700,226.413635 498.135040,218.839249 
	C499.133209,215.805771 498.384613,213.915359 495.750427,212.735352 
	C490.119202,210.212784 486.780945,205.490936 483.530670,200.600784 
	C479.370819,194.342163 474.569763,188.628235 469.287354,183.252640 
	C462.099457,175.937958 457.366638,166.835052 452.075348,158.178055 
	C438.867188,136.568527 427.014008,114.188988 414.812561,92.009239 
	C413.736389,90.053001 412.076477,88.132629 413.007629,85.002007 
	C420.685730,85.077652 428.384735,86.026535 436.062958,87.075066 
	C455.550323,89.736275 475.159576,90.768600 494.780334,91.762787 
	C525.245483,93.306458 555.721252,93.366798 586.204590,92.678337 
	C592.689941,92.531868 599.173950,92.150589 605.647278,91.711174 
	C609.279907,91.464592 610.968811,93.217087 611.148193,96.563759 
	C611.352478,100.375183 611.763794,104.233452 610.726135,107.988625 
	C610.067139,110.373482 610.770752,111.917549 613.109375,112.629967 
	C621.144043,115.077530 624.741272,120.931229 625.622070,128.867676 
	C626.012390,132.384354 627.557434,134.845016 630.774231,136.756287 
	C638.766785,141.505066 643.311951,148.587189 643.229858,158.101013 
	C643.204102,161.086777 645.278015,162.052002 647.132629,163.366989 
	C652.515747,167.183929 658.757935,170.047989 661.117126,177.036377 
	C662.406799,180.856644 663.270264,184.701630 663.312317,188.728256 
	C663.330261,190.448990 663.395630,192.168015 665.498657,192.699905 
	C671.645996,194.254700 675.063782,199.147263 678.633240,203.693924 
	C684.611023,211.307892 689.473755,219.675400 694.252197,228.074066 
	C699.433655,237.181091 699.302856,238.598663 693.497620,245.582764 
	C714.282654,266.160858 729.812744,288.239655 719.147583,319.987854 
M561.843750,257.295990 
	C558.137878,257.434357 555.437988,259.230011 555.739746,263.015594 
	C556.096191,267.487244 559.875732,267.052368 563.070435,266.743408 
	C569.917480,266.081177 576.477417,264.260315 582.778625,261.515747 
	C607.494690,250.750427 626.320007,230.845490 649.852295,218.229919 
	C651.617371,217.283661 652.128296,215.349075 651.387939,213.398605 
	C650.513062,211.093613 648.701843,210.102707 646.270325,210.228836 
	C643.816345,210.356140 641.915161,211.827423 639.920532,212.985275 
	C627.339539,220.288345 616.363403,229.846695 604.548462,238.227570 
	C591.822144,247.254883 578.515442,255.068970 561.843750,257.295990 
M645.249573,345.737732 
	C648.758789,343.836823 652.272583,341.944244 655.776367,340.033386 
	C666.016174,334.448853 676.027283,328.519165 684.527405,320.396454 
	C695.062561,310.329132 702.226135,298.467590 703.874756,283.702515 
	C704.237732,280.451172 703.304138,277.806458 699.727600,277.592560 
	C696.374207,277.391968 694.693542,279.653198 694.328674,282.903748 
	C692.855042,296.033905 685.905029,306.080444 676.503601,314.809204 
	C665.863892,324.687683 652.776489,330.620758 640.345154,337.642517 
	C637.177856,339.431610 631.944214,340.284119 633.855042,345.952026 
	C635.051514,349.501007 638.184326,349.419525 645.249573,345.737732 
M580.541687,147.055832 
	C578.111023,144.218933 575.431641,144.240234 572.682800,146.496109 
	C569.284729,149.284836 565.367249,151.048416 561.311951,152.605316 
	C555.697876,154.760635 550.187439,157.237305 545.720886,161.332031 
	C537.550232,168.822388 528.322754,174.610703 518.473206,179.602173 
	C511.193542,183.291245 504.227905,187.570175 498.954773,194.045593 
	C496.951630,196.505432 496.145233,199.196182 498.760834,201.582581 
	C501.223602,203.829498 503.860931,202.946884 505.749847,200.642242 
	C511.859192,193.188309 520.112305,188.974152 528.579834,184.982681 
	C534.612061,182.139206 540.321899,178.754028 545.337708,174.269562 
	C551.704346,168.577347 558.668091,163.850037 566.753845,160.819061 
	C570.949524,159.246292 575.014160,157.245987 578.518982,154.358429 
	C580.620178,152.627289 582.638489,150.755081 580.541687,147.055832 
M649.633606,357.300964 
	C644.891846,359.431396 639.852356,360.546753 634.813721,361.676453 
	C631.863831,362.337830 629.849060,363.969086 630.405701,367.251678 
	C630.980347,370.640656 633.648560,371.129456 636.516663,370.912140 
	C637.838501,370.812012 639.152039,370.532715 640.455078,370.265167 
	C651.060547,368.087799 660.572571,363.377716 669.565186,357.532410 
	C675.017700,353.988251 680.211426,350.076294 684.929871,345.585449 
	C686.846191,343.761627 687.389526,341.559052 685.499512,339.375793 
	C683.739441,337.342743 681.576843,336.923004 679.282593,338.535309 
	C677.786560,339.586548 676.351624,340.729706 674.933105,341.885498 
	C667.406738,348.018311 659.320496,353.236603 649.633606,357.300964 
z"/>
<path fill="#000000" opacity="1.000000" stroke="none" 
	d="
M678.180176,432.917358 
	C671.035461,426.261780 666.357422,418.284180 661.028198,409.868561 
	C683.946106,401.975891 705.013794,392.148895 721.631348,374.012878 
	C725.365234,379.060150 726.885925,384.339722 729.022278,389.304138 
	C729.283691,389.911499 729.404846,390.577637 729.622498,391.205658 
	C735.343018,407.709503 735.114990,408.592529 721.342957,419.147461 
	C713.009033,425.534637 704.233215,431.182129 694.551208,435.406189 
	C688.578003,438.012177 683.285095,437.761108 678.180176,432.917358 
z"/>
<path fill="#000000" opacity="1.000000" stroke="none" 
	d="
M339.909912,365.187866 
	C322.801544,356.581909 306.907806,346.974213 295.414917,331.564880 
	C286.860809,320.095764 285.716949,308.186249 291.946838,295.036865 
	C303.469330,270.716339 318.387207,248.427475 332.406860,225.594910 
	C339.305115,214.360352 345.617462,202.835571 350.264282,190.479324 
	C355.088287,177.651932 362.190216,166.297058 371.953613,156.708450 
	C381.527130,147.306351 385.003662,135.777573 384.705353,122.724648 
	C384.532501,115.162369 385.774658,108.101326 392.423523,103.255707 
	C394.588715,103.389893 395.107513,105.190880 395.917725,106.544823 
	C423.779816,153.104507 450.927582,200.111725 479.767334,246.057007 
	C492.349030,266.101166 490.652527,284.220093 479.956024,303.219910 
	C464.600739,330.494873 448.346222,357.244141 432.131012,384.013062 
	C426.647797,393.065002 410.614685,398.291351 398.065735,395.527649 
	C388.248138,393.365448 379.960327,388.061523 371.491211,383.116272 
	C361.143158,377.073914 351.073914,370.545593 339.909912,365.187866 
M358.020538,196.487488 
	C356.353638,202.238266 354.692352,207.990677 353.018646,213.739487 
	C349.950256,224.278671 347.207703,234.898849 342.490173,244.915802 
	C337.497192,255.517471 329.761566,264.052826 322.077362,272.531403 
	C309.201263,286.738617 306.463043,303.669800 307.385986,321.821106 
	C307.443237,322.947083 307.826263,324.126984 308.333130,325.144653 
	C309.339020,327.164001 311.150330,327.914307 313.334808,327.637451 
	C315.716888,327.335571 316.795349,325.708679 316.888367,323.500244 
	C316.993347,321.008606 316.958862,318.499512 316.797974,316.010132 
	C315.844757,301.259827 320.239014,288.468506 330.482391,277.699158 
	C345.629608,261.774170 355.635803,243.252625 360.321106,221.584442 
	C363.766510,205.650604 368.314423,189.896957 378.472534,176.524063 
	C380.450623,173.919937 379.637268,171.436722 377.248505,169.518524 
	C374.297455,167.148804 372.335663,169.101105 370.607147,171.335861 
	C364.928864,178.677155 361.372681,187.099777 358.020538,196.487488 
M395.351440,176.140289 
	C402.736786,181.116028 411.041260,184.153015 419.261261,187.330032 
	C422.277679,188.495865 425.071594,187.619156 426.248535,184.421173 
	C427.428711,181.214310 425.231445,179.496765 422.602661,178.326645 
	C421.083282,177.650360 419.512909,177.087952 417.962158,176.482819 
	C406.862762,172.151627 396.267761,167.069916 388.502319,157.519562 
	C386.520386,155.082077 383.772308,153.896973 381.130829,156.304047 
	C378.567352,158.640030 379.394318,161.352951 381.395630,163.852661 
	C385.177917,168.576843 389.547180,172.622009 395.351440,176.140289 
M365.923157,369.511169 
	C370.426147,369.732361 373.090179,366.338287 376.234589,364.065338 
	C383.689819,358.676270 383.393707,352.123688 375.588989,347.070038 
	C368.153473,342.255310 359.768951,341.293488 351.179565,341.400970 
	C348.132660,341.439087 345.844360,343.015564 345.749237,346.112823 
	C345.654663,349.193451 347.963745,350.960480 350.837433,351.338745 
	C353.791199,351.727570 356.826721,351.450409 359.804474,351.713562 
	C363.555115,352.044952 367.326202,352.530640 369.828156,355.605865 
	C369.723969,356.173096 369.752380,356.398468 369.656677,356.482544 
	C368.170288,357.788330 366.651520,359.057465 365.172211,360.371094 
	C361.417847,363.704987 361.442474,365.642975 365.923157,369.511169 
M420.326782,158.435898 
	C419.387421,156.945175 417.861786,156.228531 416.369141,155.494980 
	C408.863129,151.806259 402.913452,146.368240 398.177490,139.516312 
	C396.330261,136.843735 394.179382,133.909744 390.524384,136.359955 
	C386.866058,138.812393 388.101379,142.006683 390.151489,145.072464 
	C395.854004,153.600250 403.476379,159.901657 412.574402,164.463028 
	C417.866547,167.116302 420.616577,165.225296 420.326782,158.435898 
z"/>
<path fill="#000000" opacity="1.000000" stroke="none" 
	d="
M149.947357,539.773376 
	C152.079163,540.202454 153.822693,540.641296 155.594818,541.087341 
	C155.985657,540.556458 156.518646,540.170044 156.513687,539.790649 
	C156.315277,524.660889 165.381897,513.866333 173.394028,502.348572 
	C182.851028,488.753662 196.182571,483.690369 211.777817,481.016479 
	C229.516815,477.975006 246.543900,477.373230 262.622467,486.808746 
	C266.478851,489.071838 270.104126,491.728760 273.964050,494.289734 
	C276.120087,493.537872 277.007538,491.535065 278.496918,489.345551 
	C272.826385,483.279877 265.634644,479.630768 258.252808,476.292480 
	C256.440582,475.472961 254.538467,474.686920 252.597107,474.350739 
	C247.825500,473.524475 246.800430,471.435303 248.492172,466.741028 
	C249.841583,462.996643 251.588058,462.753723 254.822556,463.634308 
	C269.222443,467.554749 281.754089,475.006378 293.500549,483.927032 
	C297.603973,487.043304 301.770264,490.111755 305.294830,493.937073 
	C307.562561,496.398285 307.415009,498.276337 304.242981,499.673767 
	C303.786133,499.874969 303.338104,500.096405 302.888214,500.313049 
	C294.738098,504.238464 294.549194,504.303406 297.510559,512.938293 
	C299.341156,518.276062 301.400146,523.632568 304.138977,528.544434 
	C314.567749,547.247498 314.134399,566.412903 307.291504,585.979980 
	C304.979370,592.591492 302.472870,599.190369 298.629791,605.042664 
	C292.180298,614.863953 288.263306,625.863586 283.251495,636.354370 
	C280.881744,641.314697 278.175751,646.095337 274.972931,650.587769 
	C270.142212,657.363647 264.692993,663.291931 255.804825,664.769287 
	C256.014313,668.024719 256.228271,670.977234 256.389709,673.932495 
	C256.787811,681.220276 253.992111,687.354614 249.006470,692.381897 
	C246.594238,694.814270 245.412933,697.285034 245.261322,700.679016 
	C244.827042,710.400635 239.161804,722.654053 226.473572,724.630554 
	C224.105743,724.999329 223.133591,726.424438 223.106354,728.789673 
	C223.023788,735.963928 220.380493,742.371033 217.160629,748.640503 
	C211.154816,760.334473 208.621185,773.394470 202.046356,784.982727 
	C187.655975,810.346069 171.983414,834.907410 156.721329,859.727478 
	C155.789780,861.242432 154.464172,862.515076 153.360458,863.853699 
	C150.306824,862.857178 149.943573,860.316895 149.128632,858.278931 
	C127.489403,804.165894 100.428864,752.806763 70.339981,702.983582 
	C68.187874,699.419922 66.037041,695.846985 63.688660,692.413025 
	C61.613781,689.379089 62.327229,687.210999 65.190994,685.296082 
	C68.390549,683.156616 71.714813,681.220032 75.347130,679.984619 
	C77.862976,679.128784 78.696198,677.927979 78.208015,675.197327 
	C76.882896,667.785400 79.347832,661.715881 85.596771,657.431702 
	C89.172470,654.980225 90.642540,651.988281 90.872330,647.485657 
	C91.298927,639.126343 94.922806,632.028748 102.369606,627.576538 
	C104.627228,626.226746 105.786346,624.900635 105.782318,622.177307 
	C105.764702,610.275757 109.630829,600.343994 120.576530,594.183838 
	C121.593903,593.611267 122.759811,592.815735 122.518944,591.508789 
	C120.703812,581.659851 125.976303,573.764221 129.900162,565.643799 
	C133.222961,558.767273 137.435913,552.314819 141.360458,545.737732 
	C143.212387,542.634033 145.770813,540.313477 149.947357,539.773376 
M205.280029,618.242554 
	C188.168991,609.282227 169.768158,602.920410 153.387344,592.490845 
	C150.991394,590.965393 148.965042,591.326965 147.325928,593.609009 
	C145.740234,595.816650 145.816162,598.031860 147.840683,599.878723 
	C149.180481,601.101013 150.726959,602.130859 152.285828,603.073303 
	C162.009674,608.951965 172.456955,613.352173 182.832626,617.891174 
	C200.782639,625.743835 218.411514,634.025208 230.299179,650.684204 
	C232.166763,653.301453 234.785004,654.203857 237.651642,651.999878 
	C240.733749,649.630188 239.529739,647.183655 237.728973,644.637146 
	C229.518799,633.026917 218.210007,625.217773 205.280029,618.242554 
M206.466034,508.935669 
	C198.872879,508.637878 191.533936,509.850128 184.481918,512.694214 
	C181.670441,513.828064 178.304260,514.919922 179.756592,518.929138 
	C181.131271,522.723938 184.433548,522.946472 187.675812,521.541870 
	C202.904160,514.944519 217.342682,518.361328 231.531799,524.864990 
	C242.924774,530.087036 253.277893,537.102661 263.774170,543.859863 
	C266.660126,545.717773 269.711456,547.110718 271.981110,543.433350 
	C274.183075,539.865723 271.798431,537.538635 268.874847,535.718933 
	C260.818451,530.704407 252.916992,525.415527 244.663742,520.748840 
	C233.130219,514.227417 220.983719,509.285553 206.466034,508.935669 
M124.153091,687.543335 
	C122.775780,690.765930 124.466331,692.753784 127.109436,693.948975 
	C132.038422,696.177734 136.212891,699.465332 140.356750,702.818481 
	C144.533524,706.198303 149.000351,709.100281 154.102432,710.832764 
	C164.755920,714.450195 174.418320,719.917603 183.804489,726.033813 
	C190.360016,730.305481 197.157455,734.290466 205.063873,735.616760 
	C208.037170,736.115417 211.010254,735.837708 211.712952,732.137817 
	C212.383682,728.606323 210.210983,726.920776 207.020035,726.338135 
	C198.949753,724.864685 192.047989,720.906555 185.468307,716.264404 
	C178.370834,711.257019 171.114410,706.548523 162.749512,703.869446 
	C154.845047,701.337830 148.033112,696.923035 141.657166,691.727112 
	C138.414658,689.084717 134.887314,686.895264 130.986649,685.315857 
	C128.373993,684.258118 126.116051,684.305420 124.153091,687.543335 
M262.559265,506.010834 
	C257.688293,503.898163 252.855835,501.689697 247.931854,499.708801 
	C244.982193,498.522156 242.136200,498.967560 240.815689,502.189880 
	C239.374634,505.706390 241.952591,507.304565 244.628601,508.610657 
	C245.373245,508.974121 246.154343,509.269836 246.935013,509.551483 
	C254.944641,512.441345 262.407379,516.407532 269.542480,521.019714 
	C275.599640,524.935059 280.725555,529.856750 285.300659,535.409485 
	C287.032013,537.510925 289.266846,538.677307 291.807190,536.717712 
	C294.373718,534.737915 294.350830,532.231384 292.634338,529.669678 
	C291.989899,528.707825 291.230469,527.817261 290.472107,526.938477 
	C282.864655,518.122803 273.562897,511.543854 262.559265,506.010834 
z"/>
<path fill="#000000" opacity="1.000000" stroke="none" 
	d="
M288.706970,430.093781 
	C300.888397,434.869385 312.196381,440.372559 322.014099,448.632080 
	C325.363312,451.449677 327.141296,454.831818 326.680084,459.060547 
	C325.494110,469.934204 319.824585,478.937286 314.374023,488.787659 
	C296.219208,472.804352 277.450684,459.068848 253.693451,453.327057 
	C256.107727,447.536072 259.879547,443.576294 263.341339,439.414032 
	C264.510254,438.008575 265.929260,436.793579 266.983521,435.313202 
	C272.600800,427.425537 279.545044,425.056519 288.706970,430.093781 
z"/>
<path fill="#000000" opacity="1.000000" stroke="none" 
	d="
M281.510498,704.280640 
	C297.912354,697.087524 314.905121,698.648743 331.643890,699.235840 
	C344.303223,699.679932 356.961578,699.470703 369.613312,699.972839 
	C380.263672,700.395569 390.934387,700.323792 401.582062,700.790649 
	C417.214172,701.476074 431.789215,718.082642 432.158661,736.217712 
	C432.457123,750.867493 431.759094,765.535034 431.716461,780.195251 
	C431.689392,789.512390 432.335358,798.835571 432.171265,808.147095 
	C431.950104,820.697693 430.090302,833.019470 425.195404,844.717102 
	C419.198730,859.047729 408.730103,866.546387 392.912445,867.204834 
	C368.232025,868.232239 343.654572,867.195557 319.037598,865.554260 
	C303.758118,864.535583 288.396606,864.761841 273.181915,867.247131 
	C260.476288,869.322510 247.915482,868.481750 235.585632,864.923218 
	C222.606644,861.177307 210.631165,863.350037 199.074402,869.985657 
	C193.914001,872.948608 188.519623,875.944702 182.091339,874.248962 
	C180.521957,873.835022 178.984070,873.301636 176.720154,872.603882 
	C179.763153,867.236267 182.505417,862.347168 185.295578,857.485535 
	C211.831223,811.249817 238.367676,765.014526 264.924683,718.791016 
	C268.712311,712.198547 274.497559,707.807007 281.510498,704.280640 
M325.036530,847.427734 
	C336.220459,845.905029 346.976715,848.753540 357.567474,851.393372 
	C377.223022,856.292786 394.384796,851.144043 410.468140,840.141113 
	C413.033142,838.386353 414.759644,836.231873 412.758148,833.034546 
	C410.796356,829.900635 408.212646,830.189148 405.456299,831.948303 
	C404.473724,832.575378 403.464355,833.160461 402.473083,833.774231 
	C388.883820,842.188721 374.618591,845.676392 358.600891,841.564758 
	C342.028503,837.310852 325.300720,835.798462 308.251923,840.225342 
	C288.677643,845.307922 269.267242,852.026978 248.436691,849.352905 
	C245.408646,848.964294 243.355408,851.015137 243.191055,854.170715 
	C243.007980,857.686401 245.401840,858.618103 248.399094,858.789917 
	C259.424438,859.421692 270.327637,858.941650 281.171814,856.469482 
	C295.432526,853.218384 309.458405,848.782593 325.036530,847.427734 
M227.747726,855.628052 
	C232.106903,858.233948 234.497589,857.455383 236.429123,852.612427 
	C242.284439,837.931519 240.762238,822.970215 237.923019,807.998474 
	C237.324692,804.843323 235.008392,803.475769 231.974991,804.256958 
	C228.434341,805.168640 228.291687,808.123779 228.733765,811.084656 
	C230.729874,824.453552 232.316757,837.792664 226.811447,850.797974 
	C226.176376,852.298218 226.474854,853.726379 227.747726,855.628052 
M400.082642,779.306213 
	C401.162659,784.079895 403.626617,788.255005 405.881470,792.506836 
	C407.284973,795.153198 409.539276,796.621704 412.488525,795.204529 
	C415.504608,793.755371 415.419983,790.921997 414.452576,788.272522 
	C413.601196,785.940796 412.122803,783.841553 411.226868,781.521667 
	C409.754883,777.710144 407.793549,773.909180 409.295746,769.593567 
	C412.204681,768.882568 414.076874,771.189392 416.472046,771.591248 
	C418.783051,771.978943 421.408356,772.447632 422.517273,769.649841 
	C423.586151,766.953064 423.219940,764.352051 420.244537,762.839355 
	C417.870544,761.632263 415.494995,760.424316 413.081421,759.299805 
	C406.047729,756.022400 400.504761,758.914246 399.329590,766.614136 
	C398.725128,770.574646 398.783508,774.582214 400.082642,779.306213 
M213.662979,820.403198 
	C212.477646,821.269958 212.011642,822.547607 212.044739,823.901245 
	C212.289185,833.899475 210.402145,843.401001 205.888565,852.387634 
	C204.695099,854.763855 205.398911,857.169312 207.849792,858.345276 
	C210.330704,859.535522 212.903000,859.155090 214.369217,856.524536 
	C219.947556,846.516296 222.431061,835.723816 221.396759,824.331543 
	C221.061050,820.633789 218.691498,818.163391 213.662979,820.403198 
z"/>
</svg>